<?xml version="1.0" standalone="no"?>
<!DOCTYPE svg PUBLIC "-//W3C//DTD SVG 1.1//EN" "http://www.w3.org/Graphics/SVG/1.1/DTD/svg11.dtd">
<svg xmlns="http://www.w3.org/2000/svg" xmlns:xlink="http://www.w3.org/1999/xlink" width="508mm" height="279.4mm" viewBox="0 0 508 279.4"><style>.cut { stroke-width:0.2pt;stroke:magenta;fill:none }.etch { fill:magenta;stroke:none }.cut1 { stroke-width:0.2pt;stroke:#000000;fill:none }.etch1 { fill:#000000;stroke:none }.cut2 { stroke-width:0.2pt;stroke:#0000ff;fill:none }.etch2 { fill:#0000ff;stroke:none }.cut3 { stroke-width:0.2pt;stroke:#006400;fill:none }.etch3 { fill:#006400;stroke:none }.cut4 { stroke-width:0.2pt;stroke:#00ff4b;fill:none }.etch4 { fill:#00ff4b;stroke:none }.cut5 { stroke-width:0.2pt;stroke:#960000;fill:none }.etch5 { fill:#960000;stroke:none }.cut6 { stroke-width:0.2pt;stroke:#9600c8;fill:none }.etch6 { fill:#9600c8;stroke:none }.cut7 { stroke-width:0.2pt;stroke:#c86400;fill:none }.etch7 { fill:#c86400;stroke:none }.etch { fill:silver; stroke-width:0.2pt;stroke:blue }.score { fill:none; stroke-width:0.4pt;stroke:silver }</style><g transform="translate(4.762 4.762)"><g transform="translate(8.731 8.731)">nullnullnull<path class="cut1" d="M5.715 0C5.715 0.393 5.559 0.77 5.281 1.048C5.003 1.326 4.626 1.482 4.233 1.482C3.84 1.482 3.464 1.326 3.186 1.048C2.908 0.77 2.752 0.393 2.752 0C2.752 -0.393 2.908 -0.77 3.186 -1.048C3.464 -1.326 3.84 -1.482 4.233 -1.482C4.626 -1.482 5.003 -1.326 5.281 -1.048C5.559 -0.77 5.715 -0.393 5.715 0"/>nullnullnull<path class="cut1" d="M5.715 -4.233C5.715 -3.84 5.559 -3.464 5.281 -3.186C5.003 -2.908 4.626 -2.752 4.233 -2.752C3.84 -2.752 3.464 -2.908 3.186 -3.186C2.908 -3.464 2.752 -3.84 2.752 -4.233C2.752 -4.626 2.908 -5.003 3.186 -5.281C3.464 -5.559 3.84 -5.715 4.233 -5.715C4.626 -5.715 5.003 -5.559 5.281 -5.281C5.559 -5.003 5.715 -4.626 5.715 -4.233"/>null<path class="cut1" d="M6.35 -7.937C6.771 -7.937 7.175 -7.77 7.473 -7.473C7.77 -7.175 7.938 -6.771 7.938 -6.35L7.938 6.35C7.938 6.771 7.77 7.175 7.473 7.473C7.175 7.77 6.771 7.938 6.35 7.938L-6.35 7.938C-6.771 7.938-7.175 7.77-7.473 7.473C-7.77 7.175-7.937 6.771-7.937 6.35L-7.937 -6.35C-7.937 -6.771-7.77 -7.175-7.473 -7.473C-7.175 -7.77-6.771 -7.937-6.35 -7.937Z"/></g><g transform="translate(26.194 8.731)">nullnullnull<path class="cut1" d="M5.715 0C5.715 0.393 5.559 0.77 5.281 1.048C5.003 1.326 4.626 1.482 4.233 1.482C3.84 1.482 3.464 1.326 3.186 1.048C2.908 0.77 2.752 0.393 2.752 0C2.752 -0.393 2.908 -0.77 3.186 -1.048C3.464 -1.326 3.84 -1.482 4.233 -1.482C4.626 -1.482 5.003 -1.326 5.281 -1.048C5.559 -0.77 5.715 -0.393 5.715 0"/>nullnullnull<path class="cut1" d="M5.715 -4.233C5.715 -3.84 5.559 -3.464 5.281 -3.186C5.003 -2.908 4.626 -2.752 4.233 -2.752C3.84 -2.752 3.464 -2.908 3.186 -3.186C2.908 -3.464 2.752 -3.84 2.752 -4.233C2.752 -4.626 2.908 -5.003 3.186 -5.281C3.464 -5.559 3.84 -5.715 4.233 -5.715C4.626 -5.715 5.003 -5.559 5.281 -5.281C5.559 -5.003 5.715 -4.626 5.715 -4.233"/><path class="cut1" d="M1.482 0C1.482 0.393 1.326 0.77 1.048 1.048C0.77 1.326 0.393 1.482 0 1.482C-0.393 1.482-0.77 1.326-1.048 1.048C-1.326 0.77-1.482 0.393-1.482 0C-1.482 -0.393-1.326 -0.77-1.048 -1.048C-0.77 -1.326-0.393 -1.482 0 -1.482C0.393 -1.482 0.77 -1.326 1.048 -1.048C1.326 -0.77 1.482 -0.393 1.482 0"/><path class="cut1" d="M6.35 -7.937C6.771 -7.937 7.175 -7.77 7.473 -7.473C7.77 -7.175 7.938 -6.771 7.938 -6.35L7.938 6.35C7.938 6.771 7.77 7.175 7.473 7.473C7.175 7.77 6.771 7.938 6.35 7.938L-6.35 7.938C-6.771 7.938-7.175 7.77-7.473 7.473C-7.77 7.175-7.937 6.771-7.937 6.35L-7.937 -6.35C-7.937 -6.771-7.77 -7.175-7.473 -7.473C-7.175 -7.77-6.771 -7.937-6.35 -7.937Z"/></g><g transform="translate(43.656 8.731)">nullnullnull<path class="cut1" d="M5.715 0C5.715 0.393 5.559 0.77 5.281 1.048C5.003 1.326 4.626 1.482 4.233 1.482C3.84 1.482 3.464 1.326 3.186 1.048C2.908 0.77 2.752 0.393 2.752 0C2.752 -0.393 2.908 -0.77 3.186 -1.048C3.464 -1.326 3.84 -1.482 4.233 -1.482C4.626 -1.482 5.003 -1.326 5.281 -1.048C5.559 -0.77 5.715 -0.393 5.715 0"/>nullnull<path class="cut1" d="M-2.752 -4.233C-2.752 -3.84-2.908 -3.464-3.186 -3.186C-3.464 -2.908-3.84 -2.752-4.233 -2.752C-4.626 -2.752-5.003 -2.908-5.281 -3.186C-5.559 -3.464-5.715 -3.84-5.715 -4.233C-5.715 -4.626-5.559 -5.003-5.281 -5.281C-5.003 -5.559-4.626 -5.715-4.233 -5.715C-3.84 -5.715-3.464 -5.559-3.186 -5.281C-2.908 -5.003-2.752 -4.626-2.752 -4.233"/>nullnull<path class="cut1" d="M6.35 -7.937C6.771 -7.937 7.175 -7.77 7.473 -7.473C7.77 -7.175 7.938 -6.771 7.938 -6.35L7.938 6.35C7.938 6.771 7.77 7.175 7.473 7.473C7.175 7.77 6.771 7.938 6.35 7.938L-6.35 7.938C-6.771 7.938-7.175 7.77-7.473 7.473C-7.77 7.175-7.937 6.771-7.937 6.35L-7.937 -6.35C-7.937 -6.771-7.77 -7.175-7.473 -7.473C-7.175 -7.77-6.771 -7.937-6.35 -7.937Z"/></g><g transform="translate(61.119 8.731)">nullnullnull<path class="cut1" d="M5.715 0C5.715 0.393 5.559 0.77 5.281 1.048C5.003 1.326 4.626 1.482 4.233 1.482C3.84 1.482 3.464 1.326 3.186 1.048C2.908 0.77 2.752 0.393 2.752 0C2.752 -0.393 2.908 -0.77 3.186 -1.048C3.464 -1.326 3.84 -1.482 4.233 -1.482C4.626 -1.482 5.003 -1.326 5.281 -1.048C5.559 -0.77 5.715 -0.393 5.715 0"/>nullnull<path class="cut1" d="M-2.752 -4.233C-2.752 -3.84-2.908 -3.464-3.186 -3.186C-3.464 -2.908-3.84 -2.752-4.233 -2.752C-4.626 -2.752-5.003 -2.908-5.281 -3.186C-5.559 -3.464-5.715 -3.84-5.715 -4.233C-5.715 -4.626-5.559 -5.003-5.281 -5.281C-5.003 -5.559-4.626 -5.715-4.233 -5.715C-3.84 -5.715-3.464 -5.559-3.186 -5.281C-2.908 -5.003-2.752 -4.626-2.752 -4.233"/>null<path class="cut1" d="M1.482 0C1.482 0.393 1.326 0.77 1.048 1.048C0.77 1.326 0.393 1.482 0 1.482C-0.393 1.482-0.77 1.326-1.048 1.048C-1.326 0.77-1.482 0.393-1.482 0C-1.482 -0.393-1.326 -0.77-1.048 -1.048C-0.77 -1.326-0.393 -1.482 0 -1.482C0.393 -1.482 0.77 -1.326 1.048 -1.048C1.326 -0.77 1.482 -0.393 1.482 0"/><path class="cut1" d="M6.35 -7.937C6.771 -7.937 7.175 -7.77 7.473 -7.473C7.77 -7.175 7.938 -6.771 7.938 -6.35L7.938 6.35C7.938 6.771 7.77 7.175 7.473 7.473C7.175 7.77 6.771 7.938 6.35 7.938L-6.35 7.938C-6.771 7.938-7.175 7.77-7.473 7.473C-7.77 7.175-7.937 6.771-7.937 6.35L-7.937 -6.35C-7.937 -6.771-7.77 -7.175-7.473 -7.473C-7.175 -7.77-6.771 -7.937-6.35 -7.937Z"/></g><g transform="translate(78.581 8.731)">nullnullnull<path class="cut1" d="M5.715 0C5.715 0.393 5.559 0.77 5.281 1.048C5.003 1.326 4.626 1.482 4.233 1.482C3.84 1.482 3.464 1.326 3.186 1.048C2.908 0.77 2.752 0.393 2.752 0C2.752 -0.393 2.908 -0.77 3.186 -1.048C3.464 -1.326 3.84 -1.482 4.233 -1.482C4.626 -1.482 5.003 -1.326 5.281 -1.048C5.559 -0.77 5.715 -0.393 5.715 0"/>nullnull<path class="cut1" d="M-2.752 -4.233C-2.752 -3.84-2.908 -3.464-3.186 -3.186C-3.464 -2.908-3.84 -2.752-4.233 -2.752C-4.626 -2.752-5.003 -2.908-5.281 -3.186C-5.559 -3.464-5.715 -3.84-5.715 -4.233C-5.715 -4.626-5.559 -5.003-5.281 -5.281C-5.003 -5.559-4.626 -5.715-4.233 -5.715C-3.84 -5.715-3.464 -5.559-3.186 -5.281C-2.908 -5.003-2.752 -4.626-2.752 -4.233"/><path class="cut1" d="M5.715 -4.233C5.715 -3.84 5.559 -3.464 5.281 -3.186C5.003 -2.908 4.626 -2.752 4.233 -2.752C3.84 -2.752 3.464 -2.908 3.186 -3.186C2.908 -3.464 2.752 -3.84 2.752 -4.233C2.752 -4.626 2.908 -5.003 3.186 -5.281C3.464 -5.559 3.84 -5.715 4.233 -5.715C4.626 -5.715 5.003 -5.559 5.281 -5.281C5.559 -5.003 5.715 -4.626 5.715 -4.233"/>null<path class="cut1" d="M6.35 -7.937C6.771 -7.937 7.175 -7.77 7.473 -7.473C7.77 -7.175 7.938 -6.771 7.938 -6.35L7.938 6.35C7.938 6.771 7.77 7.175 7.473 7.473C7.175 7.77 6.771 7.938 6.35 7.938L-6.35 7.938C-6.771 7.938-7.175 7.77-7.473 7.473C-7.77 7.175-7.937 6.771-7.937 6.35L-7.937 -6.35C-7.937 -6.771-7.77 -7.175-7.473 -7.473C-7.175 -7.77-6.771 -7.937-6.35 -7.937Z"/></g><g transform="translate(96.044 8.731)">nullnullnull<path class="cut1" d="M5.715 0C5.715 0.393 5.559 0.77 5.281 1.048C5.003 1.326 4.626 1.482 4.233 1.482C3.84 1.482 3.464 1.326 3.186 1.048C2.908 0.77 2.752 0.393 2.752 0C2.752 -0.393 2.908 -0.77 3.186 -1.048C3.464 -1.326 3.84 -1.482 4.233 -1.482C4.626 -1.482 5.003 -1.326 5.281 -1.048C5.559 -0.77 5.715 -0.393 5.715 0"/>nullnull<path class="cut1" d="M-2.752 -4.233C-2.752 -3.84-2.908 -3.464-3.186 -3.186C-3.464 -2.908-3.84 -2.752-4.233 -2.752C-4.626 -2.752-5.003 -2.908-5.281 -3.186C-5.559 -3.464-5.715 -3.84-5.715 -4.233C-5.715 -4.626-5.559 -5.003-5.281 -5.281C-5.003 -5.559-4.626 -5.715-4.233 -5.715C-3.84 -5.715-3.464 -5.559-3.186 -5.281C-2.908 -5.003-2.752 -4.626-2.752 -4.233"/><path class="cut1" d="M5.715 -4.233C5.715 -3.84 5.559 -3.464 5.281 -3.186C5.003 -2.908 4.626 -2.752 4.233 -2.752C3.84 -2.752 3.464 -2.908 3.186 -3.186C2.908 -3.464 2.752 -3.84 2.752 -4.233C2.752 -4.626 2.908 -5.003 3.186 -5.281C3.464 -5.559 3.84 -5.715 4.233 -5.715C4.626 -5.715 5.003 -5.559 5.281 -5.281C5.559 -5.003 5.715 -4.626 5.715 -4.233"/><path class="cut1" d="M1.482 0C1.482 0.393 1.326 0.77 1.048 1.048C0.77 1.326 0.393 1.482 0 1.482C-0.393 1.482-0.77 1.326-1.048 1.048C-1.326 0.77-1.482 0.393-1.482 0C-1.482 -0.393-1.326 -0.77-1.048 -1.048C-0.77 -1.326-0.393 -1.482 0 -1.482C0.393 -1.482 0.77 -1.326 1.048 -1.048C1.326 -0.77 1.482 -0.393 1.482 0"/><path class="cut1" d="M6.35 -7.937C6.771 -7.937 7.175 -7.77 7.473 -7.473C7.77 -7.175 7.938 -6.771 7.938 -6.35L7.938 6.35C7.938 6.771 7.77 7.175 7.473 7.473C7.175 7.77 6.771 7.938 6.35 7.938L-6.35 7.938C-6.771 7.938-7.175 7.77-7.473 7.473C-7.77 7.175-7.937 6.771-7.937 6.35L-7.937 -6.35C-7.937 -6.771-7.77 -7.175-7.473 -7.473C-7.175 -7.77-6.771 -7.937-6.35 -7.937Z"/></g><g transform="translate(8.731 26.194)">nullnullnull<path class="cut1" d="M5.715 0C5.715 0.393 5.559 0.77 5.281 1.048C5.003 1.326 4.626 1.482 4.233 1.482C3.84 1.482 3.464 1.326 3.186 1.048C2.908 0.77 2.752 0.393 2.752 0C2.752 -0.393 2.908 -0.77 3.186 -1.048C3.464 -1.326 3.84 -1.482 4.233 -1.482C4.626 -1.482 5.003 -1.326 5.281 -1.048C5.559 -0.77 5.715 -0.393 5.715 0"/>null<path class="cut1" d="M-2.752 4.233C-2.752 4.626-2.908 5.003-3.186 5.281C-3.464 5.559-3.84 5.715-4.233 5.715C-4.626 5.715-5.003 5.559-5.281 5.281C-5.559 5.003-5.715 4.626-5.715 4.233C-5.715 3.84-5.559 3.464-5.281 3.186C-5.003 2.908-4.626 2.752-4.233 2.752C-3.84 2.752-3.464 2.908-3.186 3.186C-2.908 3.464-2.752 3.84-2.752 4.233"/>null<path class="cut1" d="M5.715 -4.233C5.715 -3.84 5.559 -3.464 5.281 -3.186C5.003 -2.908 4.626 -2.752 4.233 -2.752C3.84 -2.752 3.464 -2.908 3.186 -3.186C2.908 -3.464 2.752 -3.84 2.752 -4.233C2.752 -4.626 2.908 -5.003 3.186 -5.281C3.464 -5.559 3.84 -5.715 4.233 -5.715C4.626 -5.715 5.003 -5.559 5.281 -5.281C5.559 -5.003 5.715 -4.626 5.715 -4.233"/>null<path class="cut1" d="M6.35 -7.937C6.771 -7.937 7.175 -7.77 7.473 -7.473C7.77 -7.175 7.938 -6.771 7.938 -6.35L7.938 6.35C7.938 6.771 7.77 7.175 7.473 7.473C7.175 7.77 6.771 7.938 6.35 7.938L-6.35 7.938C-6.771 7.938-7.175 7.77-7.473 7.473C-7.77 7.175-7.937 6.771-7.937 6.35L-7.937 -6.35C-7.937 -6.771-7.77 -7.175-7.473 -7.473C-7.175 -7.77-6.771 -7.937-6.35 -7.937Z"/></g><g transform="translate(26.194 26.194)">nullnullnull<path class="cut1" d="M5.715 0C5.715 0.393 5.559 0.77 5.281 1.048C5.003 1.326 4.626 1.482 4.233 1.482C3.84 1.482 3.464 1.326 3.186 1.048C2.908 0.77 2.752 0.393 2.752 0C2.752 -0.393 2.908 -0.77 3.186 -1.048C3.464 -1.326 3.84 -1.482 4.233 -1.482C4.626 -1.482 5.003 -1.326 5.281 -1.048C5.559 -0.77 5.715 -0.393 5.715 0"/>null<path class="cut1" d="M-2.752 4.233C-2.752 4.626-2.908 5.003-3.186 5.281C-3.464 5.559-3.84 5.715-4.233 5.715C-4.626 5.715-5.003 5.559-5.281 5.281C-5.559 5.003-5.715 4.626-5.715 4.233C-5.715 3.84-5.559 3.464-5.281 3.186C-5.003 2.908-4.626 2.752-4.233 2.752C-3.84 2.752-3.464 2.908-3.186 3.186C-2.908 3.464-2.752 3.84-2.752 4.233"/>null<path class="cut1" d="M5.715 -4.233C5.715 -3.84 5.559 -3.464 5.281 -3.186C5.003 -2.908 4.626 -2.752 4.233 -2.752C3.84 -2.752 3.464 -2.908 3.186 -3.186C2.908 -3.464 2.752 -3.84 2.752 -4.233C2.752 -4.626 2.908 -5.003 3.186 -5.281C3.464 -5.559 3.84 -5.715 4.233 -5.715C4.626 -5.715 5.003 -5.559 5.281 -5.281C5.559 -5.003 5.715 -4.626 5.715 -4.233"/><path class="cut1" d="M1.482 0C1.482 0.393 1.326 0.77 1.048 1.048C0.77 1.326 0.393 1.482 0 1.482C-0.393 1.482-0.77 1.326-1.048 1.048C-1.326 0.77-1.482 0.393-1.482 0C-1.482 -0.393-1.326 -0.77-1.048 -1.048C-0.77 -1.326-0.393 -1.482 0 -1.482C0.393 -1.482 0.77 -1.326 1.048 -1.048C1.326 -0.77 1.482 -0.393 1.482 0"/><path class="cut1" d="M6.35 -7.937C6.771 -7.937 7.175 -7.77 7.473 -7.473C7.77 -7.175 7.938 -6.771 7.938 -6.35L7.938 6.35C7.938 6.771 7.77 7.175 7.473 7.473C7.175 7.77 6.771 7.938 6.35 7.938L-6.35 7.938C-6.771 7.938-7.175 7.77-7.473 7.473C-7.77 7.175-7.937 6.771-7.937 6.35L-7.937 -6.35C-7.937 -6.771-7.77 -7.175-7.473 -7.473C-7.175 -7.77-6.771 -7.937-6.35 -7.937Z"/></g><g transform="translate(43.656 26.194)">nullnullnull<path class="cut1" d="M5.715 0C5.715 0.393 5.559 0.77 5.281 1.048C5.003 1.326 4.626 1.482 4.233 1.482C3.84 1.482 3.464 1.326 3.186 1.048C2.908 0.77 2.752 0.393 2.752 0C2.752 -0.393 2.908 -0.77 3.186 -1.048C3.464 -1.326 3.84 -1.482 4.233 -1.482C4.626 -1.482 5.003 -1.326 5.281 -1.048C5.559 -0.77 5.715 -0.393 5.715 0"/>null<path class="cut1" d="M-2.752 4.233C-2.752 4.626-2.908 5.003-3.186 5.281C-3.464 5.559-3.84 5.715-4.233 5.715C-4.626 5.715-5.003 5.559-5.281 5.281C-5.559 5.003-5.715 4.626-5.715 4.233C-5.715 3.84-5.559 3.464-5.281 3.186C-5.003 2.908-4.626 2.752-4.233 2.752C-3.84 2.752-3.464 2.908-3.186 3.186C-2.908 3.464-2.752 3.84-2.752 4.233"/><path class="cut1" d="M-2.752 -4.233C-2.752 -3.84-2.908 -3.464-3.186 -3.186C-3.464 -2.908-3.84 -2.752-4.233 -2.752C-4.626 -2.752-5.003 -2.908-5.281 -3.186C-5.559 -3.464-5.715 -3.84-5.715 -4.233C-5.715 -4.626-5.559 -5.003-5.281 -5.281C-5.003 -5.559-4.626 -5.715-4.233 -5.715C-3.84 -5.715-3.464 -5.559-3.186 -5.281C-2.908 -5.003-2.752 -4.626-2.752 -4.233"/><path class="cut1" d="M5.715 -4.233C5.715 -3.84 5.559 -3.464 5.281 -3.186C5.003 -2.908 4.626 -2.752 4.233 -2.752C3.84 -2.752 3.464 -2.908 3.186 -3.186C2.908 -3.464 2.752 -3.84 2.752 -4.233C2.752 -4.626 2.908 -5.003 3.186 -5.281C3.464 -5.559 3.84 -5.715 4.233 -5.715C4.626 -5.715 5.003 -5.559 5.281 -5.281C5.559 -5.003 5.715 -4.626 5.715 -4.233"/>null<path class="cut1" d="M6.35 -7.937C6.771 -7.937 7.175 -7.77 7.473 -7.473C7.77 -7.175 7.938 -6.771 7.938 -6.35L7.938 6.35C7.938 6.771 7.77 7.175 7.473 7.473C7.175 7.77 6.771 7.938 6.35 7.938L-6.35 7.938C-6.771 7.938-7.175 7.77-7.473 7.473C-7.77 7.175-7.937 6.771-7.937 6.35L-7.937 -6.35C-7.937 -6.771-7.77 -7.175-7.473 -7.473C-7.175 -7.77-6.771 -7.937-6.35 -7.937Z"/></g><g transform="translate(61.119 26.194)">nullnullnull<path class="cut1" d="M5.715 0C5.715 0.393 5.559 0.77 5.281 1.048C5.003 1.326 4.626 1.482 4.233 1.482C3.84 1.482 3.464 1.326 3.186 1.048C2.908 0.77 2.752 0.393 2.752 0C2.752 -0.393 2.908 -0.77 3.186 -1.048C3.464 -1.326 3.84 -1.482 4.233 -1.482C4.626 -1.482 5.003 -1.326 5.281 -1.048C5.559 -0.77 5.715 -0.393 5.715 0"/>null<path class="cut1" d="M-2.752 4.233C-2.752 4.626-2.908 5.003-3.186 5.281C-3.464 5.559-3.84 5.715-4.233 5.715C-4.626 5.715-5.003 5.559-5.281 5.281C-5.559 5.003-5.715 4.626-5.715 4.233C-5.715 3.84-5.559 3.464-5.281 3.186C-5.003 2.908-4.626 2.752-4.233 2.752C-3.84 2.752-3.464 2.908-3.186 3.186C-2.908 3.464-2.752 3.84-2.752 4.233"/><path class="cut1" d="M-2.752 -4.233C-2.752 -3.84-2.908 -3.464-3.186 -3.186C-3.464 -2.908-3.84 -2.752-4.233 -2.752C-4.626 -2.752-5.003 -2.908-5.281 -3.186C-5.559 -3.464-5.715 -3.84-5.715 -4.233C-5.715 -4.626-5.559 -5.003-5.281 -5.281C-5.003 -5.559-4.626 -5.715-4.233 -5.715C-3.84 -5.715-3.464 -5.559-3.186 -5.281C-2.908 -5.003-2.752 -4.626-2.752 -4.233"/><path class="cut1" d="M5.715 -4.233C5.715 -3.84 5.559 -3.464 5.281 -3.186C5.003 -2.908 4.626 -2.752 4.233 -2.752C3.84 -2.752 3.464 -2.908 3.186 -3.186C2.908 -3.464 2.752 -3.84 2.752 -4.233C2.752 -4.626 2.908 -5.003 3.186 -5.281C3.464 -5.559 3.84 -5.715 4.233 -5.715C4.626 -5.715 5.003 -5.559 5.281 -5.281C5.559 -5.003 5.715 -4.626 5.715 -4.233"/><path class="cut1" d="M1.482 0C1.482 0.393 1.326 0.77 1.048 1.048C0.77 1.326 0.393 1.482 0 1.482C-0.393 1.482-0.77 1.326-1.048 1.048C-1.326 0.77-1.482 0.393-1.482 0C-1.482 -0.393-1.326 -0.77-1.048 -1.048C-0.77 -1.326-0.393 -1.482 0 -1.482C0.393 -1.482 0.77 -1.326 1.048 -1.048C1.326 -0.77 1.482 -0.393 1.482 0"/><path class="cut1" d="M6.35 -7.937C6.771 -7.937 7.175 -7.77 7.473 -7.473C7.77 -7.175 7.938 -6.771 7.938 -6.35L7.938 6.35C7.938 6.771 7.77 7.175 7.473 7.473C7.175 7.77 6.771 7.938 6.35 7.938L-6.35 7.938C-6.771 7.938-7.175 7.77-7.473 7.473C-7.77 7.175-7.937 6.771-7.937 6.35L-7.937 -6.35C-7.937 -6.771-7.77 -7.175-7.473 -7.473C-7.175 -7.77-6.771 -7.937-6.35 -7.937Z"/></g><g transform="translate(78.581 26.194)">nullnullnull<path class="cut1" d="M5.715 0C5.715 0.393 5.559 0.77 5.281 1.048C5.003 1.326 4.626 1.482 4.233 1.482C3.84 1.482 3.464 1.326 3.186 1.048C2.908 0.77 2.752 0.393 2.752 0C2.752 -0.393 2.908 -0.77 3.186 -1.048C3.464 -1.326 3.84 -1.482 4.233 -1.482C4.626 -1.482 5.003 -1.326 5.281 -1.048C5.559 -0.77 5.715 -0.393 5.715 0"/><path class="cut1" d="M5.715 4.233C5.715 4.626 5.559 5.003 5.281 5.281C5.003 5.559 4.626 5.715 4.233 5.715C3.84 5.715 3.464 5.559 3.186 5.281C2.908 5.003 2.752 4.626 2.752 4.233C2.752 3.84 2.908 3.464 3.186 3.186C3.464 2.908 3.84 2.752 4.233 2.752C4.626 2.752 5.003 2.908 5.281 3.186C5.559 3.464 5.715 3.84 5.715 4.233"/>null<path class="cut1" d="M-2.752 -4.233C-2.752 -3.84-2.908 -3.464-3.186 -3.186C-3.464 -2.908-3.84 -2.752-4.233 -2.752C-4.626 -2.752-5.003 -2.908-5.281 -3.186C-5.559 -3.464-5.715 -3.84-5.715 -4.233C-5.715 -4.626-5.559 -5.003-5.281 -5.281C-5.003 -5.559-4.626 -5.715-4.233 -5.715C-3.84 -5.715-3.464 -5.559-3.186 -5.281C-2.908 -5.003-2.752 -4.626-2.752 -4.233"/><path class="cut1" d="M5.715 -4.233C5.715 -3.84 5.559 -3.464 5.281 -3.186C5.003 -2.908 4.626 -2.752 4.233 -2.752C3.84 -2.752 3.464 -2.908 3.186 -3.186C2.908 -3.464 2.752 -3.84 2.752 -4.233C2.752 -4.626 2.908 -5.003 3.186 -5.281C3.464 -5.559 3.84 -5.715 4.233 -5.715C4.626 -5.715 5.003 -5.559 5.281 -5.281C5.559 -5.003 5.715 -4.626 5.715 -4.233"/>null<path class="cut1" d="M6.35 -7.937C6.771 -7.937 7.175 -7.77 7.473 -7.473C7.77 -7.175 7.938 -6.771 7.938 -6.35L7.938 6.35C7.938 6.771 7.77 7.175 7.473 7.473C7.175 7.77 6.771 7.938 6.35 7.938L-6.35 7.938C-6.771 7.938-7.175 7.77-7.473 7.473C-7.77 7.175-7.937 6.771-7.937 6.35L-7.937 -6.35C-7.937 -6.771-7.77 -7.175-7.473 -7.473C-7.175 -7.77-6.771 -7.937-6.35 -7.937Z"/></g><g transform="translate(96.044 26.194)">nullnullnull<path class="cut1" d="M5.715 0C5.715 0.393 5.559 0.77 5.281 1.048C5.003 1.326 4.626 1.482 4.233 1.482C3.84 1.482 3.464 1.326 3.186 1.048C2.908 0.77 2.752 0.393 2.752 0C2.752 -0.393 2.908 -0.77 3.186 -1.048C3.464 -1.326 3.84 -1.482 4.233 -1.482C4.626 -1.482 5.003 -1.326 5.281 -1.048C5.559 -0.77 5.715 -0.393 5.715 0"/><path class="cut1" d="M5.715 4.233C5.715 4.626 5.559 5.003 5.281 5.281C5.003 5.559 4.626 5.715 4.233 5.715C3.84 5.715 3.464 5.559 3.186 5.281C2.908 5.003 2.752 4.626 2.752 4.233C2.752 3.84 2.908 3.464 3.186 3.186C3.464 2.908 3.84 2.752 4.233 2.752C4.626 2.752 5.003 2.908 5.281 3.186C5.559 3.464 5.715 3.84 5.715 4.233"/>null<path class="cut1" d="M-2.752 -4.233C-2.752 -3.84-2.908 -3.464-3.186 -3.186C-3.464 -2.908-3.84 -2.752-4.233 -2.752C-4.626 -2.752-5.003 -2.908-5.281 -3.186C-5.559 -3.464-5.715 -3.84-5.715 -4.233C-5.715 -4.626-5.559 -5.003-5.281 -5.281C-5.003 -5.559-4.626 -5.715-4.233 -5.715C-3.84 -5.715-3.464 -5.559-3.186 -5.281C-2.908 -5.003-2.752 -4.626-2.752 -4.233"/><path class="cut1" d="M5.715 -4.233C5.715 -3.84 5.559 -3.464 5.281 -3.186C5.003 -2.908 4.626 -2.752 4.233 -2.752C3.84 -2.752 3.464 -2.908 3.186 -3.186C2.908 -3.464 2.752 -3.84 2.752 -4.233C2.752 -4.626 2.908 -5.003 3.186 -5.281C3.464 -5.559 3.84 -5.715 4.233 -5.715C4.626 -5.715 5.003 -5.559 5.281 -5.281C5.559 -5.003 5.715 -4.626 5.715 -4.233"/><path class="cut1" d="M1.482 0C1.482 0.393 1.326 0.77 1.048 1.048C0.77 1.326 0.393 1.482 0 1.482C-0.393 1.482-0.77 1.326-1.048 1.048C-1.326 0.77-1.482 0.393-1.482 0C-1.482 -0.393-1.326 -0.77-1.048 -1.048C-0.77 -1.326-0.393 -1.482 0 -1.482C0.393 -1.482 0.77 -1.326 1.048 -1.048C1.326 -0.77 1.482 -0.393 1.482 0"/><path class="cut1" d="M6.35 -7.937C6.771 -7.937 7.175 -7.77 7.473 -7.473C7.77 -7.175 7.938 -6.771 7.938 -6.35L7.938 6.35C7.938 6.771 7.77 7.175 7.473 7.473C7.175 7.77 6.771 7.938 6.35 7.938L-6.35 7.938C-6.771 7.938-7.175 7.77-7.473 7.473C-7.77 7.175-7.937 6.771-7.937 6.35L-7.937 -6.35C-7.937 -6.771-7.77 -7.175-7.473 -7.473C-7.175 -7.77-6.771 -7.937-6.35 -7.937Z"/></g><g transform="translate(8.731 43.656)">nullnull<path class="cut1" d="M1.482 -4.233C1.482 -3.84 1.326 -3.464 1.048 -3.186C0.77 -2.908 0.393 -2.752 0 -2.752C-0.393 -2.752-0.77 -2.908-1.048 -3.186C-1.326 -3.464-1.482 -3.84-1.482 -4.233C-1.482 -4.626-1.326 -5.003-1.048 -5.281C-0.77 -5.559-0.393 -5.715 0 -5.715C0.393 -5.715 0.77 -5.559 1.048 -5.281C1.326 -5.003 1.482 -4.626 1.482 -4.233"/><path class="cut1" d="M5.715 0C5.715 0.393 5.559 0.77 5.281 1.048C5.003 1.326 4.626 1.482 4.233 1.482C3.84 1.482 3.464 1.326 3.186 1.048C2.908 0.77 2.752 0.393 2.752 0C2.752 -0.393 2.908 -0.77 3.186 -1.048C3.464 -1.326 3.84 -1.482 4.233 -1.482C4.626 -1.482 5.003 -1.326 5.281 -1.048C5.559 -0.77 5.715 -0.393 5.715 0"/>nullnull<path class="cut1" d="M-2.752 -4.233C-2.752 -3.84-2.908 -3.464-3.186 -3.186C-3.464 -2.908-3.84 -2.752-4.233 -2.752C-4.626 -2.752-5.003 -2.908-5.281 -3.186C-5.559 -3.464-5.715 -3.84-5.715 -4.233C-5.715 -4.626-5.559 -5.003-5.281 -5.281C-5.003 -5.559-4.626 -5.715-4.233 -5.715C-3.84 -5.715-3.464 -5.559-3.186 -5.281C-2.908 -5.003-2.752 -4.626-2.752 -4.233"/>nullnull<path class="cut1" d="M6.35 -7.937C6.771 -7.937 7.175 -7.77 7.473 -7.473C7.77 -7.175 7.938 -6.771 7.938 -6.35L7.938 6.35C7.938 6.771 7.77 7.175 7.473 7.473C7.175 7.77 6.771 7.938 6.35 7.938L-6.35 7.938C-6.771 7.938-7.175 7.77-7.473 7.473C-7.77 7.175-7.937 6.771-7.937 6.35L-7.937 -6.35C-7.937 -6.771-7.77 -7.175-7.473 -7.473C-7.175 -7.77-6.771 -7.937-6.35 -7.937Z"/></g><g transform="translate(26.194 43.656)">nullnull<path class="cut1" d="M1.482 -4.233C1.482 -3.84 1.326 -3.464 1.048 -3.186C0.77 -2.908 0.393 -2.752 0 -2.752C-0.393 -2.752-0.77 -2.908-1.048 -3.186C-1.326 -3.464-1.482 -3.84-1.482 -4.233C-1.482 -4.626-1.326 -5.003-1.048 -5.281C-0.77 -5.559-0.393 -5.715 0 -5.715C0.393 -5.715 0.77 -5.559 1.048 -5.281C1.326 -5.003 1.482 -4.626 1.482 -4.233"/><path class="cut1" d="M5.715 0C5.715 0.393 5.559 0.77 5.281 1.048C5.003 1.326 4.626 1.482 4.233 1.482C3.84 1.482 3.464 1.326 3.186 1.048C2.908 0.77 2.752 0.393 2.752 0C2.752 -0.393 2.908 -0.77 3.186 -1.048C3.464 -1.326 3.84 -1.482 4.233 -1.482C4.626 -1.482 5.003 -1.326 5.281 -1.048C5.559 -0.77 5.715 -0.393 5.715 0"/>nullnull<path class="cut1" d="M-2.752 -4.233C-2.752 -3.84-2.908 -3.464-3.186 -3.186C-3.464 -2.908-3.84 -2.752-4.233 -2.752C-4.626 -2.752-5.003 -2.908-5.281 -3.186C-5.559 -3.464-5.715 -3.84-5.715 -4.233C-5.715 -4.626-5.559 -5.003-5.281 -5.281C-5.003 -5.559-4.626 -5.715-4.233 -5.715C-3.84 -5.715-3.464 -5.559-3.186 -5.281C-2.908 -5.003-2.752 -4.626-2.752 -4.233"/>null<path class="cut1" d="M1.482 0C1.482 0.393 1.326 0.77 1.048 1.048C0.77 1.326 0.393 1.482 0 1.482C-0.393 1.482-0.77 1.326-1.048 1.048C-1.326 0.77-1.482 0.393-1.482 0C-1.482 -0.393-1.326 -0.77-1.048 -1.048C-0.77 -1.326-0.393 -1.482 0 -1.482C0.393 -1.482 0.77 -1.326 1.048 -1.048C1.326 -0.77 1.482 -0.393 1.482 0"/><path class="cut1" d="M6.35 -7.937C6.771 -7.937 7.175 -7.77 7.473 -7.473C7.77 -7.175 7.938 -6.771 7.938 -6.35L7.938 6.35C7.938 6.771 7.77 7.175 7.473 7.473C7.175 7.77 6.771 7.938 6.35 7.938L-6.35 7.938C-6.771 7.938-7.175 7.77-7.473 7.473C-7.77 7.175-7.937 6.771-7.937 6.35L-7.937 -6.35C-7.937 -6.771-7.77 -7.175-7.473 -7.473C-7.175 -7.77-6.771 -7.937-6.35 -7.937Z"/></g><g transform="translate(43.656 43.656)">nullnull<path class="cut1" d="M1.482 -4.233C1.482 -3.84 1.326 -3.464 1.048 -3.186C0.77 -2.908 0.393 -2.752 0 -2.752C-0.393 -2.752-0.77 -2.908-1.048 -3.186C-1.326 -3.464-1.482 -3.84-1.482 -4.233C-1.482 -4.626-1.326 -5.003-1.048 -5.281C-0.77 -5.559-0.393 -5.715 0 -5.715C0.393 -5.715 0.77 -5.559 1.048 -5.281C1.326 -5.003 1.482 -4.626 1.482 -4.233"/><path class="cut1" d="M5.715 0C5.715 0.393 5.559 0.77 5.281 1.048C5.003 1.326 4.626 1.482 4.233 1.482C3.84 1.482 3.464 1.326 3.186 1.048C2.908 0.77 2.752 0.393 2.752 0C2.752 -0.393 2.908 -0.77 3.186 -1.048C3.464 -1.326 3.84 -1.482 4.233 -1.482C4.626 -1.482 5.003 -1.326 5.281 -1.048C5.559 -0.77 5.715 -0.393 5.715 0"/>nullnull<path class="cut1" d="M-2.752 -4.233C-2.752 -3.84-2.908 -3.464-3.186 -3.186C-3.464 -2.908-3.84 -2.752-4.233 -2.752C-4.626 -2.752-5.003 -2.908-5.281 -3.186C-5.559 -3.464-5.715 -3.84-5.715 -4.233C-5.715 -4.626-5.559 -5.003-5.281 -5.281C-5.003 -5.559-4.626 -5.715-4.233 -5.715C-3.84 -5.715-3.464 -5.559-3.186 -5.281C-2.908 -5.003-2.752 -4.626-2.752 -4.233"/><path class="cut1" d="M5.715 -4.233C5.715 -3.84 5.559 -3.464 5.281 -3.186C5.003 -2.908 4.626 -2.752 4.233 -2.752C3.84 -2.752 3.464 -2.908 3.186 -3.186C2.908 -3.464 2.752 -3.84 2.752 -4.233C2.752 -4.626 2.908 -5.003 3.186 -5.281C3.464 -5.559 3.84 -5.715 4.233 -5.715C4.626 -5.715 5.003 -5.559 5.281 -5.281C5.559 -5.003 5.715 -4.626 5.715 -4.233"/>null<path class="cut1" d="M6.35 -7.937C6.771 -7.937 7.175 -7.77 7.473 -7.473C7.77 -7.175 7.938 -6.771 7.938 -6.35L7.938 6.35C7.938 6.771 7.77 7.175 7.473 7.473C7.175 7.77 6.771 7.938 6.35 7.938L-6.35 7.938C-6.771 7.938-7.175 7.77-7.473 7.473C-7.77 7.175-7.937 6.771-7.937 6.35L-7.937 -6.35C-7.937 -6.771-7.77 -7.175-7.473 -7.473C-7.175 -7.77-6.771 -7.937-6.35 -7.937Z"/></g><g transform="translate(61.119 43.656)">nullnull<path class="cut1" d="M1.482 -4.233C1.482 -3.84 1.326 -3.464 1.048 -3.186C0.77 -2.908 0.393 -2.752 0 -2.752C-0.393 -2.752-0.77 -2.908-1.048 -3.186C-1.326 -3.464-1.482 -3.84-1.482 -4.233C-1.482 -4.626-1.326 -5.003-1.048 -5.281C-0.77 -5.559-0.393 -5.715 0 -5.715C0.393 -5.715 0.77 -5.559 1.048 -5.281C1.326 -5.003 1.482 -4.626 1.482 -4.233"/><path class="cut1" d="M5.715 0C5.715 0.393 5.559 0.77 5.281 1.048C5.003 1.326 4.626 1.482 4.233 1.482C3.84 1.482 3.464 1.326 3.186 1.048C2.908 0.77 2.752 0.393 2.752 0C2.752 -0.393 2.908 -0.77 3.186 -1.048C3.464 -1.326 3.84 -1.482 4.233 -1.482C4.626 -1.482 5.003 -1.326 5.281 -1.048C5.559 -0.77 5.715 -0.393 5.715 0"/>nullnull<path class="cut1" d="M-2.752 -4.233C-2.752 -3.84-2.908 -3.464-3.186 -3.186C-3.464 -2.908-3.84 -2.752-4.233 -2.752C-4.626 -2.752-5.003 -2.908-5.281 -3.186C-5.559 -3.464-5.715 -3.84-5.715 -4.233C-5.715 -4.626-5.559 -5.003-5.281 -5.281C-5.003 -5.559-4.626 -5.715-4.233 -5.715C-3.84 -5.715-3.464 -5.559-3.186 -5.281C-2.908 -5.003-2.752 -4.626-2.752 -4.233"/><path class="cut1" d="M5.715 -4.233C5.715 -3.84 5.559 -3.464 5.281 -3.186C5.003 -2.908 4.626 -2.752 4.233 -2.752C3.84 -2.752 3.464 -2.908 3.186 -3.186C2.908 -3.464 2.752 -3.84 2.752 -4.233C2.752 -4.626 2.908 -5.003 3.186 -5.281C3.464 -5.559 3.84 -5.715 4.233 -5.715C4.626 -5.715 5.003 -5.559 5.281 -5.281C5.559 -5.003 5.715 -4.626 5.715 -4.233"/><path class="cut1" d="M1.482 0C1.482 0.393 1.326 0.77 1.048 1.048C0.77 1.326 0.393 1.482 0 1.482C-0.393 1.482-0.77 1.326-1.048 1.048C-1.326 0.77-1.482 0.393-1.482 0C-1.482 -0.393-1.326 -0.77-1.048 -1.048C-0.77 -1.326-0.393 -1.482 0 -1.482C0.393 -1.482 0.77 -1.326 1.048 -1.048C1.326 -0.77 1.482 -0.393 1.482 0"/><path class="cut1" d="M6.35 -7.937C6.771 -7.937 7.175 -7.77 7.473 -7.473C7.77 -7.175 7.938 -6.771 7.938 -6.35L7.938 6.35C7.938 6.771 7.77 7.175 7.473 7.473C7.175 7.77 6.771 7.938 6.35 7.938L-6.35 7.938C-6.771 7.938-7.175 7.77-7.473 7.473C-7.77 7.175-7.937 6.771-7.937 6.35L-7.937 -6.35C-7.937 -6.771-7.77 -7.175-7.473 -7.473C-7.175 -7.77-6.771 -7.937-6.35 -7.937Z"/></g><g transform="translate(78.581 43.656)">nullnull<path class="cut1" d="M1.482 -4.233C1.482 -3.84 1.326 -3.464 1.048 -3.186C0.77 -2.908 0.393 -2.752 0 -2.752C-0.393 -2.752-0.77 -2.908-1.048 -3.186C-1.326 -3.464-1.482 -3.84-1.482 -4.233C-1.482 -4.626-1.326 -5.003-1.048 -5.281C-0.77 -5.559-0.393 -5.715 0 -5.715C0.393 -5.715 0.77 -5.559 1.048 -5.281C1.326 -5.003 1.482 -4.626 1.482 -4.233"/><path class="cut1" d="M5.715 0C5.715 0.393 5.559 0.77 5.281 1.048C5.003 1.326 4.626 1.482 4.233 1.482C3.84 1.482 3.464 1.326 3.186 1.048C2.908 0.77 2.752 0.393 2.752 0C2.752 -0.393 2.908 -0.77 3.186 -1.048C3.464 -1.326 3.84 -1.482 4.233 -1.482C4.626 -1.482 5.003 -1.326 5.281 -1.048C5.559 -0.77 5.715 -0.393 5.715 0"/>null<path class="cut1" d="M-2.752 4.233C-2.752 4.626-2.908 5.003-3.186 5.281C-3.464 5.559-3.84 5.715-4.233 5.715C-4.626 5.715-5.003 5.559-5.281 5.281C-5.559 5.003-5.715 4.626-5.715 4.233C-5.715 3.84-5.559 3.464-5.281 3.186C-5.003 2.908-4.626 2.752-4.233 2.752C-3.84 2.752-3.464 2.908-3.186 3.186C-2.908 3.464-2.752 3.84-2.752 4.233"/><path class="cut1" d="M-2.752 -4.233C-2.752 -3.84-2.908 -3.464-3.186 -3.186C-3.464 -2.908-3.84 -2.752-4.233 -2.752C-4.626 -2.752-5.003 -2.908-5.281 -3.186C-5.559 -3.464-5.715 -3.84-5.715 -4.233C-5.715 -4.626-5.559 -5.003-5.281 -5.281C-5.003 -5.559-4.626 -5.715-4.233 -5.715C-3.84 -5.715-3.464 -5.559-3.186 -5.281C-2.908 -5.003-2.752 -4.626-2.752 -4.233"/>nullnull<path class="cut1" d="M6.35 -7.937C6.771 -7.937 7.175 -7.77 7.473 -7.473C7.77 -7.175 7.938 -6.771 7.938 -6.35L7.938 6.35C7.938 6.771 7.77 7.175 7.473 7.473C7.175 7.77 6.771 7.938 6.35 7.938L-6.35 7.938C-6.771 7.938-7.175 7.77-7.473 7.473C-7.77 7.175-7.937 6.771-7.937 6.35L-7.937 -6.35C-7.937 -6.771-7.77 -7.175-7.473 -7.473C-7.175 -7.77-6.771 -7.937-6.35 -7.937Z"/></g><g transform="translate(96.044 43.656)">nullnull<path class="cut1" d="M1.482 -4.233C1.482 -3.84 1.326 -3.464 1.048 -3.186C0.77 -2.908 0.393 -2.752 0 -2.752C-0.393 -2.752-0.77 -2.908-1.048 -3.186C-1.326 -3.464-1.482 -3.84-1.482 -4.233C-1.482 -4.626-1.326 -5.003-1.048 -5.281C-0.77 -5.559-0.393 -5.715 0 -5.715C0.393 -5.715 0.77 -5.559 1.048 -5.281C1.326 -5.003 1.482 -4.626 1.482 -4.233"/><path class="cut1" d="M5.715 0C5.715 0.393 5.559 0.77 5.281 1.048C5.003 1.326 4.626 1.482 4.233 1.482C3.84 1.482 3.464 1.326 3.186 1.048C2.908 0.77 2.752 0.393 2.752 0C2.752 -0.393 2.908 -0.77 3.186 -1.048C3.464 -1.326 3.84 -1.482 4.233 -1.482C4.626 -1.482 5.003 -1.326 5.281 -1.048C5.559 -0.77 5.715 -0.393 5.715 0"/>null<path class="cut1" d="M-2.752 4.233C-2.752 4.626-2.908 5.003-3.186 5.281C-3.464 5.559-3.84 5.715-4.233 5.715C-4.626 5.715-5.003 5.559-5.281 5.281C-5.559 5.003-5.715 4.626-5.715 4.233C-5.715 3.84-5.559 3.464-5.281 3.186C-5.003 2.908-4.626 2.752-4.233 2.752C-3.84 2.752-3.464 2.908-3.186 3.186C-2.908 3.464-2.752 3.84-2.752 4.233"/><path class="cut1" d="M-2.752 -4.233C-2.752 -3.84-2.908 -3.464-3.186 -3.186C-3.464 -2.908-3.84 -2.752-4.233 -2.752C-4.626 -2.752-5.003 -2.908-5.281 -3.186C-5.559 -3.464-5.715 -3.84-5.715 -4.233C-5.715 -4.626-5.559 -5.003-5.281 -5.281C-5.003 -5.559-4.626 -5.715-4.233 -5.715C-3.84 -5.715-3.464 -5.559-3.186 -5.281C-2.908 -5.003-2.752 -4.626-2.752 -4.233"/>null<path class="cut1" d="M1.482 0C1.482 0.393 1.326 0.77 1.048 1.048C0.77 1.326 0.393 1.482 0 1.482C-0.393 1.482-0.77 1.326-1.048 1.048C-1.326 0.77-1.482 0.393-1.482 0C-1.482 -0.393-1.326 -0.77-1.048 -1.048C-0.77 -1.326-0.393 -1.482 0 -1.482C0.393 -1.482 0.77 -1.326 1.048 -1.048C1.326 -0.77 1.482 -0.393 1.482 0"/><path class="cut1" d="M6.35 -7.937C6.771 -7.937 7.175 -7.77 7.473 -7.473C7.77 -7.175 7.938 -6.771 7.938 -6.35L7.938 6.35C7.938 6.771 7.77 7.175 7.473 7.473C7.175 7.77 6.771 7.938 6.35 7.938L-6.35 7.938C-6.771 7.938-7.175 7.77-7.473 7.473C-7.77 7.175-7.937 6.771-7.937 6.35L-7.937 -6.35C-7.937 -6.771-7.77 -7.175-7.473 -7.473C-7.175 -7.77-6.771 -7.937-6.35 -7.937Z"/></g><g transform="translate(8.731 61.119)">nullnull<path class="cut1" d="M1.482 -4.233C1.482 -3.84 1.326 -3.464 1.048 -3.186C0.77 -2.908 0.393 -2.752 0 -2.752C-0.393 -2.752-0.77 -2.908-1.048 -3.186C-1.326 -3.464-1.482 -3.84-1.482 -4.233C-1.482 -4.626-1.326 -5.003-1.048 -5.281C-0.77 -5.559-0.393 -5.715 0 -5.715C0.393 -5.715 0.77 -5.559 1.048 -5.281C1.326 -5.003 1.482 -4.626 1.482 -4.233"/><path class="cut1" d="M5.715 0C5.715 0.393 5.559 0.77 5.281 1.048C5.003 1.326 4.626 1.482 4.233 1.482C3.84 1.482 3.464 1.326 3.186 1.048C2.908 0.77 2.752 0.393 2.752 0C2.752 -0.393 2.908 -0.77 3.186 -1.048C3.464 -1.326 3.84 -1.482 4.233 -1.482C4.626 -1.482 5.003 -1.326 5.281 -1.048C5.559 -0.77 5.715 -0.393 5.715 0"/>null<path class="cut1" d="M-2.752 4.233C-2.752 4.626-2.908 5.003-3.186 5.281C-3.464 5.559-3.84 5.715-4.233 5.715C-4.626 5.715-5.003 5.559-5.281 5.281C-5.559 5.003-5.715 4.626-5.715 4.233C-5.715 3.84-5.559 3.464-5.281 3.186C-5.003 2.908-4.626 2.752-4.233 2.752C-3.84 2.752-3.464 2.908-3.186 3.186C-2.908 3.464-2.752 3.84-2.752 4.233"/><path class="cut1" d="M-2.752 -4.233C-2.752 -3.84-2.908 -3.464-3.186 -3.186C-3.464 -2.908-3.84 -2.752-4.233 -2.752C-4.626 -2.752-5.003 -2.908-5.281 -3.186C-5.559 -3.464-5.715 -3.84-5.715 -4.233C-5.715 -4.626-5.559 -5.003-5.281 -5.281C-5.003 -5.559-4.626 -5.715-4.233 -5.715C-3.84 -5.715-3.464 -5.559-3.186 -5.281C-2.908 -5.003-2.752 -4.626-2.752 -4.233"/><path class="cut1" d="M5.715 -4.233C5.715 -3.84 5.559 -3.464 5.281 -3.186C5.003 -2.908 4.626 -2.752 4.233 -2.752C3.84 -2.752 3.464 -2.908 3.186 -3.186C2.908 -3.464 2.752 -3.84 2.752 -4.233C2.752 -4.626 2.908 -5.003 3.186 -5.281C3.464 -5.559 3.84 -5.715 4.233 -5.715C4.626 -5.715 5.003 -5.559 5.281 -5.281C5.559 -5.003 5.715 -4.626 5.715 -4.233"/>null<path class="cut1" d="M6.35 -7.937C6.771 -7.937 7.175 -7.77 7.473 -7.473C7.77 -7.175 7.938 -6.771 7.938 -6.35L7.938 6.35C7.938 6.771 7.77 7.175 7.473 7.473C7.175 7.77 6.771 7.938 6.35 7.938L-6.35 7.938C-6.771 7.938-7.175 7.77-7.473 7.473C-7.77 7.175-7.937 6.771-7.937 6.35L-7.937 -6.35C-7.937 -6.771-7.77 -7.175-7.473 -7.473C-7.175 -7.77-6.771 -7.937-6.35 -7.937Z"/></g><g transform="translate(26.194 61.119)">nullnull<path class="cut1" d="M1.482 -4.233C1.482 -3.84 1.326 -3.464 1.048 -3.186C0.77 -2.908 0.393 -2.752 0 -2.752C-0.393 -2.752-0.77 -2.908-1.048 -3.186C-1.326 -3.464-1.482 -3.84-1.482 -4.233C-1.482 -4.626-1.326 -5.003-1.048 -5.281C-0.77 -5.559-0.393 -5.715 0 -5.715C0.393 -5.715 0.77 -5.559 1.048 -5.281C1.326 -5.003 1.482 -4.626 1.482 -4.233"/><path class="cut1" d="M5.715 0C5.715 0.393 5.559 0.77 5.281 1.048C5.003 1.326 4.626 1.482 4.233 1.482C3.84 1.482 3.464 1.326 3.186 1.048C2.908 0.77 2.752 0.393 2.752 0C2.752 -0.393 2.908 -0.77 3.186 -1.048C3.464 -1.326 3.84 -1.482 4.233 -1.482C4.626 -1.482 5.003 -1.326 5.281 -1.048C5.559 -0.77 5.715 -0.393 5.715 0"/>null<path class="cut1" d="M-2.752 4.233C-2.752 4.626-2.908 5.003-3.186 5.281C-3.464 5.559-3.84 5.715-4.233 5.715C-4.626 5.715-5.003 5.559-5.281 5.281C-5.559 5.003-5.715 4.626-5.715 4.233C-5.715 3.84-5.559 3.464-5.281 3.186C-5.003 2.908-4.626 2.752-4.233 2.752C-3.84 2.752-3.464 2.908-3.186 3.186C-2.908 3.464-2.752 3.84-2.752 4.233"/><path class="cut1" d="M-2.752 -4.233C-2.752 -3.84-2.908 -3.464-3.186 -3.186C-3.464 -2.908-3.84 -2.752-4.233 -2.752C-4.626 -2.752-5.003 -2.908-5.281 -3.186C-5.559 -3.464-5.715 -3.84-5.715 -4.233C-5.715 -4.626-5.559 -5.003-5.281 -5.281C-5.003 -5.559-4.626 -5.715-4.233 -5.715C-3.84 -5.715-3.464 -5.559-3.186 -5.281C-2.908 -5.003-2.752 -4.626-2.752 -4.233"/><path class="cut1" d="M5.715 -4.233C5.715 -3.84 5.559 -3.464 5.281 -3.186C5.003 -2.908 4.626 -2.752 4.233 -2.752C3.84 -2.752 3.464 -2.908 3.186 -3.186C2.908 -3.464 2.752 -3.84 2.752 -4.233C2.752 -4.626 2.908 -5.003 3.186 -5.281C3.464 -5.559 3.84 -5.715 4.233 -5.715C4.626 -5.715 5.003 -5.559 5.281 -5.281C5.559 -5.003 5.715 -4.626 5.715 -4.233"/><path class="cut1" d="M1.482 0C1.482 0.393 1.326 0.77 1.048 1.048C0.77 1.326 0.393 1.482 0 1.482C-0.393 1.482-0.77 1.326-1.048 1.048C-1.326 0.77-1.482 0.393-1.482 0C-1.482 -0.393-1.326 -0.77-1.048 -1.048C-0.77 -1.326-0.393 -1.482 0 -1.482C0.393 -1.482 0.77 -1.326 1.048 -1.048C1.326 -0.77 1.482 -0.393 1.482 0"/><path class="cut1" d="M6.35 -7.937C6.771 -7.937 7.175 -7.77 7.473 -7.473C7.77 -7.175 7.938 -6.771 7.938 -6.35L7.938 6.35C7.938 6.771 7.77 7.175 7.473 7.473C7.175 7.77 6.771 7.938 6.35 7.938L-6.35 7.938C-6.771 7.938-7.175 7.77-7.473 7.473C-7.77 7.175-7.937 6.771-7.937 6.35L-7.937 -6.35C-7.937 -6.771-7.77 -7.175-7.473 -7.473C-7.175 -7.77-6.771 -7.937-6.35 -7.937Z"/></g><g transform="translate(43.656 61.119)">null<path class="cut1" d="M-2.752 0C-2.752 0.393-2.908 0.77-3.186 1.048C-3.464 1.326-3.84 1.482-4.233 1.482C-4.626 1.482-5.003 1.326-5.281 1.048C-5.559 0.77-5.715 0.393-5.715 0C-5.715 -0.393-5.559 -0.77-5.281 -1.048C-5.003 -1.326-4.626 -1.482-4.233 -1.482C-3.84 -1.482-3.464 -1.326-3.186 -1.048C-2.908 -0.77-2.752 -0.393-2.752 0"/>null<path class="cut1" d="M5.715 0C5.715 0.393 5.559 0.77 5.281 1.048C5.003 1.326 4.626 1.482 4.233 1.482C3.84 1.482 3.464 1.326 3.186 1.048C2.908 0.77 2.752 0.393 2.752 0C2.752 -0.393 2.908 -0.77 3.186 -1.048C3.464 -1.326 3.84 -1.482 4.233 -1.482C4.626 -1.482 5.003 -1.326 5.281 -1.048C5.559 -0.77 5.715 -0.393 5.715 0"/>nullnullnull<path class="cut1" d="M5.715 -4.233C5.715 -3.84 5.559 -3.464 5.281 -3.186C5.003 -2.908 4.626 -2.752 4.233 -2.752C3.84 -2.752 3.464 -2.908 3.186 -3.186C2.908 -3.464 2.752 -3.84 2.752 -4.233C2.752 -4.626 2.908 -5.003 3.186 -5.281C3.464 -5.559 3.84 -5.715 4.233 -5.715C4.626 -5.715 5.003 -5.559 5.281 -5.281C5.559 -5.003 5.715 -4.626 5.715 -4.233"/>null<path class="cut1" d="M6.35 -7.937C6.771 -7.937 7.175 -7.77 7.473 -7.473C7.77 -7.175 7.938 -6.771 7.938 -6.35L7.938 6.35C7.938 6.771 7.77 7.175 7.473 7.473C7.175 7.77 6.771 7.938 6.35 7.938L-6.35 7.938C-6.771 7.938-7.175 7.77-7.473 7.473C-7.77 7.175-7.937 6.771-7.937 6.35L-7.937 -6.35C-7.937 -6.771-7.77 -7.175-7.473 -7.473C-7.175 -7.77-6.771 -7.937-6.35 -7.937Z"/></g><g transform="translate(61.119 61.119)">null<path class="cut1" d="M-2.752 0C-2.752 0.393-2.908 0.77-3.186 1.048C-3.464 1.326-3.84 1.482-4.233 1.482C-4.626 1.482-5.003 1.326-5.281 1.048C-5.559 0.77-5.715 0.393-5.715 0C-5.715 -0.393-5.559 -0.77-5.281 -1.048C-5.003 -1.326-4.626 -1.482-4.233 -1.482C-3.84 -1.482-3.464 -1.326-3.186 -1.048C-2.908 -0.77-2.752 -0.393-2.752 0"/>null<path class="cut1" d="M5.715 0C5.715 0.393 5.559 0.77 5.281 1.048C5.003 1.326 4.626 1.482 4.233 1.482C3.84 1.482 3.464 1.326 3.186 1.048C2.908 0.77 2.752 0.393 2.752 0C2.752 -0.393 2.908 -0.77 3.186 -1.048C3.464 -1.326 3.84 -1.482 4.233 -1.482C4.626 -1.482 5.003 -1.326 5.281 -1.048C5.559 -0.77 5.715 -0.393 5.715 0"/>nullnullnull<path class="cut1" d="M5.715 -4.233C5.715 -3.84 5.559 -3.464 5.281 -3.186C5.003 -2.908 4.626 -2.752 4.233 -2.752C3.84 -2.752 3.464 -2.908 3.186 -3.186C2.908 -3.464 2.752 -3.84 2.752 -4.233C2.752 -4.626 2.908 -5.003 3.186 -5.281C3.464 -5.559 3.84 -5.715 4.233 -5.715C4.626 -5.715 5.003 -5.559 5.281 -5.281C5.559 -5.003 5.715 -4.626 5.715 -4.233"/><path class="cut1" d="M1.482 0C1.482 0.393 1.326 0.77 1.048 1.048C0.77 1.326 0.393 1.482 0 1.482C-0.393 1.482-0.77 1.326-1.048 1.048C-1.326 0.77-1.482 0.393-1.482 0C-1.482 -0.393-1.326 -0.77-1.048 -1.048C-0.77 -1.326-0.393 -1.482 0 -1.482C0.393 -1.482 0.77 -1.326 1.048 -1.048C1.326 -0.77 1.482 -0.393 1.482 0"/><path class="cut1" d="M6.35 -7.937C6.771 -7.937 7.175 -7.77 7.473 -7.473C7.77 -7.175 7.938 -6.771 7.938 -6.35L7.938 6.35C7.938 6.771 7.77 7.175 7.473 7.473C7.175 7.77 6.771 7.938 6.35 7.938L-6.35 7.938C-6.771 7.938-7.175 7.77-7.473 7.473C-7.77 7.175-7.937 6.771-7.937 6.35L-7.937 -6.35C-7.937 -6.771-7.77 -7.175-7.473 -7.473C-7.175 -7.77-6.771 -7.937-6.35 -7.937Z"/></g><g transform="translate(78.581 61.119)">null<path class="cut1" d="M-2.752 0C-2.752 0.393-2.908 0.77-3.186 1.048C-3.464 1.326-3.84 1.482-4.233 1.482C-4.626 1.482-5.003 1.326-5.281 1.048C-5.559 0.77-5.715 0.393-5.715 0C-5.715 -0.393-5.559 -0.77-5.281 -1.048C-5.003 -1.326-4.626 -1.482-4.233 -1.482C-3.84 -1.482-3.464 -1.326-3.186 -1.048C-2.908 -0.77-2.752 -0.393-2.752 0"/>null<path class="cut1" d="M5.715 0C5.715 0.393 5.559 0.77 5.281 1.048C5.003 1.326 4.626 1.482 4.233 1.482C3.84 1.482 3.464 1.326 3.186 1.048C2.908 0.77 2.752 0.393 2.752 0C2.752 -0.393 2.908 -0.77 3.186 -1.048C3.464 -1.326 3.84 -1.482 4.233 -1.482C4.626 -1.482 5.003 -1.326 5.281 -1.048C5.559 -0.77 5.715 -0.393 5.715 0"/>null<path class="cut1" d="M-2.752 4.233C-2.752 4.626-2.908 5.003-3.186 5.281C-3.464 5.559-3.84 5.715-4.233 5.715C-4.626 5.715-5.003 5.559-5.281 5.281C-5.559 5.003-5.715 4.626-5.715 4.233C-5.715 3.84-5.559 3.464-5.281 3.186C-5.003 2.908-4.626 2.752-4.233 2.752C-3.84 2.752-3.464 2.908-3.186 3.186C-2.908 3.464-2.752 3.84-2.752 4.233"/><path class="cut1" d="M-2.752 -4.233C-2.752 -3.84-2.908 -3.464-3.186 -3.186C-3.464 -2.908-3.84 -2.752-4.233 -2.752C-4.626 -2.752-5.003 -2.908-5.281 -3.186C-5.559 -3.464-5.715 -3.84-5.715 -4.233C-5.715 -4.626-5.559 -5.003-5.281 -5.281C-5.003 -5.559-4.626 -5.715-4.233 -5.715C-3.84 -5.715-3.464 -5.559-3.186 -5.281C-2.908 -5.003-2.752 -4.626-2.752 -4.233"/><path class="cut1" d="M5.715 -4.233C5.715 -3.84 5.559 -3.464 5.281 -3.186C5.003 -2.908 4.626 -2.752 4.233 -2.752C3.84 -2.752 3.464 -2.908 3.186 -3.186C2.908 -3.464 2.752 -3.84 2.752 -4.233C2.752 -4.626 2.908 -5.003 3.186 -5.281C3.464 -5.559 3.84 -5.715 4.233 -5.715C4.626 -5.715 5.003 -5.559 5.281 -5.281C5.559 -5.003 5.715 -4.626 5.715 -4.233"/>null<path class="cut1" d="M6.35 -7.937C6.771 -7.937 7.175 -7.77 7.473 -7.473C7.77 -7.175 7.938 -6.771 7.938 -6.35L7.938 6.35C7.938 6.771 7.77 7.175 7.473 7.473C7.175 7.77 6.771 7.938 6.35 7.938L-6.35 7.938C-6.771 7.938-7.175 7.77-7.473 7.473C-7.77 7.175-7.937 6.771-7.937 6.35L-7.937 -6.35C-7.937 -6.771-7.77 -7.175-7.473 -7.473C-7.175 -7.77-6.771 -7.937-6.35 -7.937Z"/></g><g transform="translate(96.044 61.119)">null<path class="cut1" d="M-2.752 0C-2.752 0.393-2.908 0.77-3.186 1.048C-3.464 1.326-3.84 1.482-4.233 1.482C-4.626 1.482-5.003 1.326-5.281 1.048C-5.559 0.77-5.715 0.393-5.715 0C-5.715 -0.393-5.559 -0.77-5.281 -1.048C-5.003 -1.326-4.626 -1.482-4.233 -1.482C-3.84 -1.482-3.464 -1.326-3.186 -1.048C-2.908 -0.77-2.752 -0.393-2.752 0"/>null<path class="cut1" d="M5.715 0C5.715 0.393 5.559 0.77 5.281 1.048C5.003 1.326 4.626 1.482 4.233 1.482C3.84 1.482 3.464 1.326 3.186 1.048C2.908 0.77 2.752 0.393 2.752 0C2.752 -0.393 2.908 -0.77 3.186 -1.048C3.464 -1.326 3.84 -1.482 4.233 -1.482C4.626 -1.482 5.003 -1.326 5.281 -1.048C5.559 -0.77 5.715 -0.393 5.715 0"/>null<path class="cut1" d="M-2.752 4.233C-2.752 4.626-2.908 5.003-3.186 5.281C-3.464 5.559-3.84 5.715-4.233 5.715C-4.626 5.715-5.003 5.559-5.281 5.281C-5.559 5.003-5.715 4.626-5.715 4.233C-5.715 3.84-5.559 3.464-5.281 3.186C-5.003 2.908-4.626 2.752-4.233 2.752C-3.84 2.752-3.464 2.908-3.186 3.186C-2.908 3.464-2.752 3.84-2.752 4.233"/><path class="cut1" d="M-2.752 -4.233C-2.752 -3.84-2.908 -3.464-3.186 -3.186C-3.464 -2.908-3.84 -2.752-4.233 -2.752C-4.626 -2.752-5.003 -2.908-5.281 -3.186C-5.559 -3.464-5.715 -3.84-5.715 -4.233C-5.715 -4.626-5.559 -5.003-5.281 -5.281C-5.003 -5.559-4.626 -5.715-4.233 -5.715C-3.84 -5.715-3.464 -5.559-3.186 -5.281C-2.908 -5.003-2.752 -4.626-2.752 -4.233"/><path class="cut1" d="M5.715 -4.233C5.715 -3.84 5.559 -3.464 5.281 -3.186C5.003 -2.908 4.626 -2.752 4.233 -2.752C3.84 -2.752 3.464 -2.908 3.186 -3.186C2.908 -3.464 2.752 -3.84 2.752 -4.233C2.752 -4.626 2.908 -5.003 3.186 -5.281C3.464 -5.559 3.84 -5.715 4.233 -5.715C4.626 -5.715 5.003 -5.559 5.281 -5.281C5.559 -5.003 5.715 -4.626 5.715 -4.233"/><path class="cut1" d="M1.482 0C1.482 0.393 1.326 0.77 1.048 1.048C0.77 1.326 0.393 1.482 0 1.482C-0.393 1.482-0.77 1.326-1.048 1.048C-1.326 0.77-1.482 0.393-1.482 0C-1.482 -0.393-1.326 -0.77-1.048 -1.048C-0.77 -1.326-0.393 -1.482 0 -1.482C0.393 -1.482 0.77 -1.326 1.048 -1.048C1.326 -0.77 1.482 -0.393 1.482 0"/><path class="cut1" d="M6.35 -7.937C6.771 -7.937 7.175 -7.77 7.473 -7.473C7.77 -7.175 7.938 -6.771 7.938 -6.35L7.938 6.35C7.938 6.771 7.77 7.175 7.473 7.473C7.175 7.77 6.771 7.938 6.35 7.938L-6.35 7.938C-6.771 7.938-7.175 7.77-7.473 7.473C-7.77 7.175-7.937 6.771-7.937 6.35L-7.937 -6.35C-7.937 -6.771-7.77 -7.175-7.473 -7.473C-7.175 -7.77-6.771 -7.937-6.35 -7.937Z"/></g><g transform="translate(8.731 78.581)">null<path class="cut1" d="M-2.752 0C-2.752 0.393-2.908 0.77-3.186 1.048C-3.464 1.326-3.84 1.482-4.233 1.482C-4.626 1.482-5.003 1.326-5.281 1.048C-5.559 0.77-5.715 0.393-5.715 0C-5.715 -0.393-5.559 -0.77-5.281 -1.048C-5.003 -1.326-4.626 -1.482-4.233 -1.482C-3.84 -1.482-3.464 -1.326-3.186 -1.048C-2.908 -0.77-2.752 -0.393-2.752 0"/><path class="cut1" d="M1.482 -4.233C1.482 -3.84 1.326 -3.464 1.048 -3.186C0.77 -2.908 0.393 -2.752 0 -2.752C-0.393 -2.752-0.77 -2.908-1.048 -3.186C-1.326 -3.464-1.482 -3.84-1.482 -4.233C-1.482 -4.626-1.326 -5.003-1.048 -5.281C-0.77 -5.559-0.393 -5.715 0 -5.715C0.393 -5.715 0.77 -5.559 1.048 -5.281C1.326 -5.003 1.482 -4.626 1.482 -4.233"/><path class="cut1" d="M5.715 0C5.715 0.393 5.559 0.77 5.281 1.048C5.003 1.326 4.626 1.482 4.233 1.482C3.84 1.482 3.464 1.326 3.186 1.048C2.908 0.77 2.752 0.393 2.752 0C2.752 -0.393 2.908 -0.77 3.186 -1.048C3.464 -1.326 3.84 -1.482 4.233 -1.482C4.626 -1.482 5.003 -1.326 5.281 -1.048C5.559 -0.77 5.715 -0.393 5.715 0"/>nullnullnull<path class="cut1" d="M5.715 -4.233C5.715 -3.84 5.559 -3.464 5.281 -3.186C5.003 -2.908 4.626 -2.752 4.233 -2.752C3.84 -2.752 3.464 -2.908 3.186 -3.186C2.908 -3.464 2.752 -3.84 2.752 -4.233C2.752 -4.626 2.908 -5.003 3.186 -5.281C3.464 -5.559 3.84 -5.715 4.233 -5.715C4.626 -5.715 5.003 -5.559 5.281 -5.281C5.559 -5.003 5.715 -4.626 5.715 -4.233"/>null<path class="cut1" d="M6.35 -7.937C6.771 -7.937 7.175 -7.77 7.473 -7.473C7.77 -7.175 7.938 -6.771 7.938 -6.35L7.938 6.35C7.938 6.771 7.77 7.175 7.473 7.473C7.175 7.77 6.771 7.938 6.35 7.938L-6.35 7.938C-6.771 7.938-7.175 7.77-7.473 7.473C-7.77 7.175-7.937 6.771-7.937 6.35L-7.937 -6.35C-7.937 -6.771-7.77 -7.175-7.473 -7.473C-7.175 -7.77-6.771 -7.937-6.35 -7.937Z"/></g><g transform="translate(26.194 78.581)">null<path class="cut1" d="M-2.752 0C-2.752 0.393-2.908 0.77-3.186 1.048C-3.464 1.326-3.84 1.482-4.233 1.482C-4.626 1.482-5.003 1.326-5.281 1.048C-5.559 0.77-5.715 0.393-5.715 0C-5.715 -0.393-5.559 -0.77-5.281 -1.048C-5.003 -1.326-4.626 -1.482-4.233 -1.482C-3.84 -1.482-3.464 -1.326-3.186 -1.048C-2.908 -0.77-2.752 -0.393-2.752 0"/><path class="cut1" d="M1.482 -4.233C1.482 -3.84 1.326 -3.464 1.048 -3.186C0.77 -2.908 0.393 -2.752 0 -2.752C-0.393 -2.752-0.77 -2.908-1.048 -3.186C-1.326 -3.464-1.482 -3.84-1.482 -4.233C-1.482 -4.626-1.326 -5.003-1.048 -5.281C-0.77 -5.559-0.393 -5.715 0 -5.715C0.393 -5.715 0.77 -5.559 1.048 -5.281C1.326 -5.003 1.482 -4.626 1.482 -4.233"/><path class="cut1" d="M5.715 0C5.715 0.393 5.559 0.77 5.281 1.048C5.003 1.326 4.626 1.482 4.233 1.482C3.84 1.482 3.464 1.326 3.186 1.048C2.908 0.77 2.752 0.393 2.752 0C2.752 -0.393 2.908 -0.77 3.186 -1.048C3.464 -1.326 3.84 -1.482 4.233 -1.482C4.626 -1.482 5.003 -1.326 5.281 -1.048C5.559 -0.77 5.715 -0.393 5.715 0"/>nullnullnull<path class="cut1" d="M5.715 -4.233C5.715 -3.84 5.559 -3.464 5.281 -3.186C5.003 -2.908 4.626 -2.752 4.233 -2.752C3.84 -2.752 3.464 -2.908 3.186 -3.186C2.908 -3.464 2.752 -3.84 2.752 -4.233C2.752 -4.626 2.908 -5.003 3.186 -5.281C3.464 -5.559 3.84 -5.715 4.233 -5.715C4.626 -5.715 5.003 -5.559 5.281 -5.281C5.559 -5.003 5.715 -4.626 5.715 -4.233"/><path class="cut1" d="M1.482 0C1.482 0.393 1.326 0.77 1.048 1.048C0.77 1.326 0.393 1.482 0 1.482C-0.393 1.482-0.77 1.326-1.048 1.048C-1.326 0.77-1.482 0.393-1.482 0C-1.482 -0.393-1.326 -0.77-1.048 -1.048C-0.77 -1.326-0.393 -1.482 0 -1.482C0.393 -1.482 0.77 -1.326 1.048 -1.048C1.326 -0.77 1.482 -0.393 1.482 0"/><path class="cut1" d="M6.35 -7.937C6.771 -7.937 7.175 -7.77 7.473 -7.473C7.77 -7.175 7.938 -6.771 7.938 -6.35L7.938 6.35C7.938 6.771 7.77 7.175 7.473 7.473C7.175 7.77 6.771 7.938 6.35 7.938L-6.35 7.938C-6.771 7.938-7.175 7.77-7.473 7.473C-7.77 7.175-7.937 6.771-7.937 6.35L-7.937 -6.35C-7.937 -6.771-7.77 -7.175-7.473 -7.473C-7.175 -7.77-6.771 -7.937-6.35 -7.937Z"/></g><g transform="translate(43.656 78.581)">null<path class="cut1" d="M-2.752 0C-2.752 0.393-2.908 0.77-3.186 1.048C-3.464 1.326-3.84 1.482-4.233 1.482C-4.626 1.482-5.003 1.326-5.281 1.048C-5.559 0.77-5.715 0.393-5.715 0C-5.715 -0.393-5.559 -0.77-5.281 -1.048C-5.003 -1.326-4.626 -1.482-4.233 -1.482C-3.84 -1.482-3.464 -1.326-3.186 -1.048C-2.908 -0.77-2.752 -0.393-2.752 0"/><path class="cut1" d="M1.482 -4.233C1.482 -3.84 1.326 -3.464 1.048 -3.186C0.77 -2.908 0.393 -2.752 0 -2.752C-0.393 -2.752-0.77 -2.908-1.048 -3.186C-1.326 -3.464-1.482 -3.84-1.482 -4.233C-1.482 -4.626-1.326 -5.003-1.048 -5.281C-0.77 -5.559-0.393 -5.715 0 -5.715C0.393 -5.715 0.77 -5.559 1.048 -5.281C1.326 -5.003 1.482 -4.626 1.482 -4.233"/><path class="cut1" d="M5.715 0C5.715 0.393 5.559 0.77 5.281 1.048C5.003 1.326 4.626 1.482 4.233 1.482C3.84 1.482 3.464 1.326 3.186 1.048C2.908 0.77 2.752 0.393 2.752 0C2.752 -0.393 2.908 -0.77 3.186 -1.048C3.464 -1.326 3.84 -1.482 4.233 -1.482C4.626 -1.482 5.003 -1.326 5.281 -1.048C5.559 -0.77 5.715 -0.393 5.715 0"/>null<path class="cut1" d="M-2.752 4.233C-2.752 4.626-2.908 5.003-3.186 5.281C-3.464 5.559-3.84 5.715-4.233 5.715C-4.626 5.715-5.003 5.559-5.281 5.281C-5.559 5.003-5.715 4.626-5.715 4.233C-5.715 3.84-5.559 3.464-5.281 3.186C-5.003 2.908-4.626 2.752-4.233 2.752C-3.84 2.752-3.464 2.908-3.186 3.186C-2.908 3.464-2.752 3.84-2.752 4.233"/>nullnullnull<path class="cut1" d="M6.35 -7.937C6.771 -7.937 7.175 -7.77 7.473 -7.473C7.77 -7.175 7.938 -6.771 7.938 -6.35L7.938 6.35C7.938 6.771 7.77 7.175 7.473 7.473C7.175 7.77 6.771 7.938 6.35 7.938L-6.35 7.938C-6.771 7.938-7.175 7.77-7.473 7.473C-7.77 7.175-7.937 6.771-7.937 6.35L-7.937 -6.35C-7.937 -6.771-7.77 -7.175-7.473 -7.473C-7.175 -7.77-6.771 -7.937-6.35 -7.937Z"/></g><g transform="translate(61.119 78.581)">null<path class="cut1" d="M-2.752 0C-2.752 0.393-2.908 0.77-3.186 1.048C-3.464 1.326-3.84 1.482-4.233 1.482C-4.626 1.482-5.003 1.326-5.281 1.048C-5.559 0.77-5.715 0.393-5.715 0C-5.715 -0.393-5.559 -0.77-5.281 -1.048C-5.003 -1.326-4.626 -1.482-4.233 -1.482C-3.84 -1.482-3.464 -1.326-3.186 -1.048C-2.908 -0.77-2.752 -0.393-2.752 0"/><path class="cut1" d="M1.482 -4.233C1.482 -3.84 1.326 -3.464 1.048 -3.186C0.77 -2.908 0.393 -2.752 0 -2.752C-0.393 -2.752-0.77 -2.908-1.048 -3.186C-1.326 -3.464-1.482 -3.84-1.482 -4.233C-1.482 -4.626-1.326 -5.003-1.048 -5.281C-0.77 -5.559-0.393 -5.715 0 -5.715C0.393 -5.715 0.77 -5.559 1.048 -5.281C1.326 -5.003 1.482 -4.626 1.482 -4.233"/><path class="cut1" d="M5.715 0C5.715 0.393 5.559 0.77 5.281 1.048C5.003 1.326 4.626 1.482 4.233 1.482C3.84 1.482 3.464 1.326 3.186 1.048C2.908 0.77 2.752 0.393 2.752 0C2.752 -0.393 2.908 -0.77 3.186 -1.048C3.464 -1.326 3.84 -1.482 4.233 -1.482C4.626 -1.482 5.003 -1.326 5.281 -1.048C5.559 -0.77 5.715 -0.393 5.715 0"/>null<path class="cut1" d="M-2.752 4.233C-2.752 4.626-2.908 5.003-3.186 5.281C-3.464 5.559-3.84 5.715-4.233 5.715C-4.626 5.715-5.003 5.559-5.281 5.281C-5.559 5.003-5.715 4.626-5.715 4.233C-5.715 3.84-5.559 3.464-5.281 3.186C-5.003 2.908-4.626 2.752-4.233 2.752C-3.84 2.752-3.464 2.908-3.186 3.186C-2.908 3.464-2.752 3.84-2.752 4.233"/>nullnull<path class="cut1" d="M1.482 0C1.482 0.393 1.326 0.77 1.048 1.048C0.77 1.326 0.393 1.482 0 1.482C-0.393 1.482-0.77 1.326-1.048 1.048C-1.326 0.77-1.482 0.393-1.482 0C-1.482 -0.393-1.326 -0.77-1.048 -1.048C-0.77 -1.326-0.393 -1.482 0 -1.482C0.393 -1.482 0.77 -1.326 1.048 -1.048C1.326 -0.77 1.482 -0.393 1.482 0"/><path class="cut1" d="M6.35 -7.937C6.771 -7.937 7.175 -7.77 7.473 -7.473C7.77 -7.175 7.938 -6.771 7.938 -6.35L7.938 6.35C7.938 6.771 7.77 7.175 7.473 7.473C7.175 7.77 6.771 7.938 6.35 7.938L-6.35 7.938C-6.771 7.938-7.175 7.77-7.473 7.473C-7.77 7.175-7.937 6.771-7.937 6.35L-7.937 -6.35C-7.937 -6.771-7.77 -7.175-7.473 -7.473C-7.175 -7.77-6.771 -7.937-6.35 -7.937Z"/></g><g transform="translate(78.581 78.581)">null<path class="cut1" d="M-2.752 0C-2.752 0.393-2.908 0.77-3.186 1.048C-3.464 1.326-3.84 1.482-4.233 1.482C-4.626 1.482-5.003 1.326-5.281 1.048C-5.559 0.77-5.715 0.393-5.715 0C-5.715 -0.393-5.559 -0.77-5.281 -1.048C-5.003 -1.326-4.626 -1.482-4.233 -1.482C-3.84 -1.482-3.464 -1.326-3.186 -1.048C-2.908 -0.77-2.752 -0.393-2.752 0"/><path class="cut1" d="M1.482 -4.233C1.482 -3.84 1.326 -3.464 1.048 -3.186C0.77 -2.908 0.393 -2.752 0 -2.752C-0.393 -2.752-0.77 -2.908-1.048 -3.186C-1.326 -3.464-1.482 -3.84-1.482 -4.233C-1.482 -4.626-1.326 -5.003-1.048 -5.281C-0.77 -5.559-0.393 -5.715 0 -5.715C0.393 -5.715 0.77 -5.559 1.048 -5.281C1.326 -5.003 1.482 -4.626 1.482 -4.233"/><path class="cut1" d="M5.715 0C5.715 0.393 5.559 0.77 5.281 1.048C5.003 1.326 4.626 1.482 4.233 1.482C3.84 1.482 3.464 1.326 3.186 1.048C2.908 0.77 2.752 0.393 2.752 0C2.752 -0.393 2.908 -0.77 3.186 -1.048C3.464 -1.326 3.84 -1.482 4.233 -1.482C4.626 -1.482 5.003 -1.326 5.281 -1.048C5.559 -0.77 5.715 -0.393 5.715 0"/>null<path class="cut1" d="M-2.752 4.233C-2.752 4.626-2.908 5.003-3.186 5.281C-3.464 5.559-3.84 5.715-4.233 5.715C-4.626 5.715-5.003 5.559-5.281 5.281C-5.559 5.003-5.715 4.626-5.715 4.233C-5.715 3.84-5.559 3.464-5.281 3.186C-5.003 2.908-4.626 2.752-4.233 2.752C-3.84 2.752-3.464 2.908-3.186 3.186C-2.908 3.464-2.752 3.84-2.752 4.233"/>null<path class="cut1" d="M5.715 -4.233C5.715 -3.84 5.559 -3.464 5.281 -3.186C5.003 -2.908 4.626 -2.752 4.233 -2.752C3.84 -2.752 3.464 -2.908 3.186 -3.186C2.908 -3.464 2.752 -3.84 2.752 -4.233C2.752 -4.626 2.908 -5.003 3.186 -5.281C3.464 -5.559 3.84 -5.715 4.233 -5.715C4.626 -5.715 5.003 -5.559 5.281 -5.281C5.559 -5.003 5.715 -4.626 5.715 -4.233"/>null<path class="cut1" d="M6.35 -7.937C6.771 -7.937 7.175 -7.77 7.473 -7.473C7.77 -7.175 7.938 -6.771 7.938 -6.35L7.938 6.35C7.938 6.771 7.77 7.175 7.473 7.473C7.175 7.77 6.771 7.938 6.35 7.938L-6.35 7.938C-6.771 7.938-7.175 7.77-7.473 7.473C-7.77 7.175-7.937 6.771-7.937 6.35L-7.937 -6.35C-7.937 -6.771-7.77 -7.175-7.473 -7.473C-7.175 -7.77-6.771 -7.937-6.35 -7.937Z"/></g><g transform="translate(96.044 78.581)">null<path class="cut1" d="M-2.752 0C-2.752 0.393-2.908 0.77-3.186 1.048C-3.464 1.326-3.84 1.482-4.233 1.482C-4.626 1.482-5.003 1.326-5.281 1.048C-5.559 0.77-5.715 0.393-5.715 0C-5.715 -0.393-5.559 -0.77-5.281 -1.048C-5.003 -1.326-4.626 -1.482-4.233 -1.482C-3.84 -1.482-3.464 -1.326-3.186 -1.048C-2.908 -0.77-2.752 -0.393-2.752 0"/><path class="cut1" d="M1.482 -4.233C1.482 -3.84 1.326 -3.464 1.048 -3.186C0.77 -2.908 0.393 -2.752 0 -2.752C-0.393 -2.752-0.77 -2.908-1.048 -3.186C-1.326 -3.464-1.482 -3.84-1.482 -4.233C-1.482 -4.626-1.326 -5.003-1.048 -5.281C-0.77 -5.559-0.393 -5.715 0 -5.715C0.393 -5.715 0.77 -5.559 1.048 -5.281C1.326 -5.003 1.482 -4.626 1.482 -4.233"/><path class="cut1" d="M5.715 0C5.715 0.393 5.559 0.77 5.281 1.048C5.003 1.326 4.626 1.482 4.233 1.482C3.84 1.482 3.464 1.326 3.186 1.048C2.908 0.77 2.752 0.393 2.752 0C2.752 -0.393 2.908 -0.77 3.186 -1.048C3.464 -1.326 3.84 -1.482 4.233 -1.482C4.626 -1.482 5.003 -1.326 5.281 -1.048C5.559 -0.77 5.715 -0.393 5.715 0"/>null<path class="cut1" d="M-2.752 4.233C-2.752 4.626-2.908 5.003-3.186 5.281C-3.464 5.559-3.84 5.715-4.233 5.715C-4.626 5.715-5.003 5.559-5.281 5.281C-5.559 5.003-5.715 4.626-5.715 4.233C-5.715 3.84-5.559 3.464-5.281 3.186C-5.003 2.908-4.626 2.752-4.233 2.752C-3.84 2.752-3.464 2.908-3.186 3.186C-2.908 3.464-2.752 3.84-2.752 4.233"/>null<path class="cut1" d="M5.715 -4.233C5.715 -3.84 5.559 -3.464 5.281 -3.186C5.003 -2.908 4.626 -2.752 4.233 -2.752C3.84 -2.752 3.464 -2.908 3.186 -3.186C2.908 -3.464 2.752 -3.84 2.752 -4.233C2.752 -4.626 2.908 -5.003 3.186 -5.281C3.464 -5.559 3.84 -5.715 4.233 -5.715C4.626 -5.715 5.003 -5.559 5.281 -5.281C5.559 -5.003 5.715 -4.626 5.715 -4.233"/><path class="cut1" d="M1.482 0C1.482 0.393 1.326 0.77 1.048 1.048C0.77 1.326 0.393 1.482 0 1.482C-0.393 1.482-0.77 1.326-1.048 1.048C-1.326 0.77-1.482 0.393-1.482 0C-1.482 -0.393-1.326 -0.77-1.048 -1.048C-0.77 -1.326-0.393 -1.482 0 -1.482C0.393 -1.482 0.77 -1.326 1.048 -1.048C1.326 -0.77 1.482 -0.393 1.482 0"/><path class="cut1" d="M6.35 -7.937C6.771 -7.937 7.175 -7.77 7.473 -7.473C7.77 -7.175 7.938 -6.771 7.938 -6.35L7.938 6.35C7.938 6.771 7.77 7.175 7.473 7.473C7.175 7.77 6.771 7.938 6.35 7.938L-6.35 7.938C-6.771 7.938-7.175 7.77-7.473 7.473C-7.77 7.175-7.937 6.771-7.937 6.35L-7.937 -6.35C-7.937 -6.771-7.77 -7.175-7.473 -7.473C-7.175 -7.77-6.771 -7.937-6.35 -7.937Z"/></g><g transform="translate(8.731 96.044)">null<path class="cut1" d="M-2.752 0C-2.752 0.393-2.908 0.77-3.186 1.048C-3.464 1.326-3.84 1.482-4.233 1.482C-4.626 1.482-5.003 1.326-5.281 1.048C-5.559 0.77-5.715 0.393-5.715 0C-5.715 -0.393-5.559 -0.77-5.281 -1.048C-5.003 -1.326-4.626 -1.482-4.233 -1.482C-3.84 -1.482-3.464 -1.326-3.186 -1.048C-2.908 -0.77-2.752 -0.393-2.752 0"/><path class="cut1" d="M1.482 -4.233C1.482 -3.84 1.326 -3.464 1.048 -3.186C0.77 -2.908 0.393 -2.752 0 -2.752C-0.393 -2.752-0.77 -2.908-1.048 -3.186C-1.326 -3.464-1.482 -3.84-1.482 -4.233C-1.482 -4.626-1.326 -5.003-1.048 -5.281C-0.77 -5.559-0.393 -5.715 0 -5.715C0.393 -5.715 0.77 -5.559 1.048 -5.281C1.326 -5.003 1.482 -4.626 1.482 -4.233"/><path class="cut1" d="M5.715 0C5.715 0.393 5.559 0.77 5.281 1.048C5.003 1.326 4.626 1.482 4.233 1.482C3.84 1.482 3.464 1.326 3.186 1.048C2.908 0.77 2.752 0.393 2.752 0C2.752 -0.393 2.908 -0.77 3.186 -1.048C3.464 -1.326 3.84 -1.482 4.233 -1.482C4.626 -1.482 5.003 -1.326 5.281 -1.048C5.559 -0.77 5.715 -0.393 5.715 0"/>null<path class="cut1" d="M-2.752 4.233C-2.752 4.626-2.908 5.003-3.186 5.281C-3.464 5.559-3.84 5.715-4.233 5.715C-4.626 5.715-5.003 5.559-5.281 5.281C-5.559 5.003-5.715 4.626-5.715 4.233C-5.715 3.84-5.559 3.464-5.281 3.186C-5.003 2.908-4.626 2.752-4.233 2.752C-3.84 2.752-3.464 2.908-3.186 3.186C-2.908 3.464-2.752 3.84-2.752 4.233"/><path class="cut1" d="M-2.752 -4.233C-2.752 -3.84-2.908 -3.464-3.186 -3.186C-3.464 -2.908-3.84 -2.752-4.233 -2.752C-4.626 -2.752-5.003 -2.908-5.281 -3.186C-5.559 -3.464-5.715 -3.84-5.715 -4.233C-5.715 -4.626-5.559 -5.003-5.281 -5.281C-5.003 -5.559-4.626 -5.715-4.233 -5.715C-3.84 -5.715-3.464 -5.559-3.186 -5.281C-2.908 -5.003-2.752 -4.626-2.752 -4.233"/>nullnull<path class="cut1" d="M6.35 -7.937C6.771 -7.937 7.175 -7.77 7.473 -7.473C7.77 -7.175 7.938 -6.771 7.938 -6.35L7.938 6.35C7.938 6.771 7.77 7.175 7.473 7.473C7.175 7.77 6.771 7.938 6.35 7.938L-6.35 7.938C-6.771 7.938-7.175 7.77-7.473 7.473C-7.77 7.175-7.937 6.771-7.937 6.35L-7.937 -6.35C-7.937 -6.771-7.77 -7.175-7.473 -7.473C-7.175 -7.77-6.771 -7.937-6.35 -7.937Z"/></g><g transform="translate(26.194 96.044)">null<path class="cut1" d="M-2.752 0C-2.752 0.393-2.908 0.77-3.186 1.048C-3.464 1.326-3.84 1.482-4.233 1.482C-4.626 1.482-5.003 1.326-5.281 1.048C-5.559 0.77-5.715 0.393-5.715 0C-5.715 -0.393-5.559 -0.77-5.281 -1.048C-5.003 -1.326-4.626 -1.482-4.233 -1.482C-3.84 -1.482-3.464 -1.326-3.186 -1.048C-2.908 -0.77-2.752 -0.393-2.752 0"/><path class="cut1" d="M1.482 -4.233C1.482 -3.84 1.326 -3.464 1.048 -3.186C0.77 -2.908 0.393 -2.752 0 -2.752C-0.393 -2.752-0.77 -2.908-1.048 -3.186C-1.326 -3.464-1.482 -3.84-1.482 -4.233C-1.482 -4.626-1.326 -5.003-1.048 -5.281C-0.77 -5.559-0.393 -5.715 0 -5.715C0.393 -5.715 0.77 -5.559 1.048 -5.281C1.326 -5.003 1.482 -4.626 1.482 -4.233"/><path class="cut1" d="M5.715 0C5.715 0.393 5.559 0.77 5.281 1.048C5.003 1.326 4.626 1.482 4.233 1.482C3.84 1.482 3.464 1.326 3.186 1.048C2.908 0.77 2.752 0.393 2.752 0C2.752 -0.393 2.908 -0.77 3.186 -1.048C3.464 -1.326 3.84 -1.482 4.233 -1.482C4.626 -1.482 5.003 -1.326 5.281 -1.048C5.559 -0.77 5.715 -0.393 5.715 0"/>null<path class="cut1" d="M-2.752 4.233C-2.752 4.626-2.908 5.003-3.186 5.281C-3.464 5.559-3.84 5.715-4.233 5.715C-4.626 5.715-5.003 5.559-5.281 5.281C-5.559 5.003-5.715 4.626-5.715 4.233C-5.715 3.84-5.559 3.464-5.281 3.186C-5.003 2.908-4.626 2.752-4.233 2.752C-3.84 2.752-3.464 2.908-3.186 3.186C-2.908 3.464-2.752 3.84-2.752 4.233"/><path class="cut1" d="M-2.752 -4.233C-2.752 -3.84-2.908 -3.464-3.186 -3.186C-3.464 -2.908-3.84 -2.752-4.233 -2.752C-4.626 -2.752-5.003 -2.908-5.281 -3.186C-5.559 -3.464-5.715 -3.84-5.715 -4.233C-5.715 -4.626-5.559 -5.003-5.281 -5.281C-5.003 -5.559-4.626 -5.715-4.233 -5.715C-3.84 -5.715-3.464 -5.559-3.186 -5.281C-2.908 -5.003-2.752 -4.626-2.752 -4.233"/>null<path class="cut1" d="M1.482 0C1.482 0.393 1.326 0.77 1.048 1.048C0.77 1.326 0.393 1.482 0 1.482C-0.393 1.482-0.77 1.326-1.048 1.048C-1.326 0.77-1.482 0.393-1.482 0C-1.482 -0.393-1.326 -0.77-1.048 -1.048C-0.77 -1.326-0.393 -1.482 0 -1.482C0.393 -1.482 0.77 -1.326 1.048 -1.048C1.326 -0.77 1.482 -0.393 1.482 0"/><path class="cut1" d="M6.35 -7.937C6.771 -7.937 7.175 -7.77 7.473 -7.473C7.77 -7.175 7.938 -6.771 7.938 -6.35L7.938 6.35C7.938 6.771 7.77 7.175 7.473 7.473C7.175 7.77 6.771 7.938 6.35 7.938L-6.35 7.938C-6.771 7.938-7.175 7.77-7.473 7.473C-7.77 7.175-7.937 6.771-7.937 6.35L-7.937 -6.35C-7.937 -6.771-7.77 -7.175-7.473 -7.473C-7.175 -7.77-6.771 -7.937-6.35 -7.937Z"/></g><g transform="translate(43.656 96.044)">null<path class="cut1" d="M-2.752 0C-2.752 0.393-2.908 0.77-3.186 1.048C-3.464 1.326-3.84 1.482-4.233 1.482C-4.626 1.482-5.003 1.326-5.281 1.048C-5.559 0.77-5.715 0.393-5.715 0C-5.715 -0.393-5.559 -0.77-5.281 -1.048C-5.003 -1.326-4.626 -1.482-4.233 -1.482C-3.84 -1.482-3.464 -1.326-3.186 -1.048C-2.908 -0.77-2.752 -0.393-2.752 0"/><path class="cut1" d="M1.482 -4.233C1.482 -3.84 1.326 -3.464 1.048 -3.186C0.77 -2.908 0.393 -2.752 0 -2.752C-0.393 -2.752-0.77 -2.908-1.048 -3.186C-1.326 -3.464-1.482 -3.84-1.482 -4.233C-1.482 -4.626-1.326 -5.003-1.048 -5.281C-0.77 -5.559-0.393 -5.715 0 -5.715C0.393 -5.715 0.77 -5.559 1.048 -5.281C1.326 -5.003 1.482 -4.626 1.482 -4.233"/><path class="cut1" d="M5.715 0C5.715 0.393 5.559 0.77 5.281 1.048C5.003 1.326 4.626 1.482 4.233 1.482C3.84 1.482 3.464 1.326 3.186 1.048C2.908 0.77 2.752 0.393 2.752 0C2.752 -0.393 2.908 -0.77 3.186 -1.048C3.464 -1.326 3.84 -1.482 4.233 -1.482C4.626 -1.482 5.003 -1.326 5.281 -1.048C5.559 -0.77 5.715 -0.393 5.715 0"/>null<path class="cut1" d="M-2.752 4.233C-2.752 4.626-2.908 5.003-3.186 5.281C-3.464 5.559-3.84 5.715-4.233 5.715C-4.626 5.715-5.003 5.559-5.281 5.281C-5.559 5.003-5.715 4.626-5.715 4.233C-5.715 3.84-5.559 3.464-5.281 3.186C-5.003 2.908-4.626 2.752-4.233 2.752C-3.84 2.752-3.464 2.908-3.186 3.186C-2.908 3.464-2.752 3.84-2.752 4.233"/><path class="cut1" d="M-2.752 -4.233C-2.752 -3.84-2.908 -3.464-3.186 -3.186C-3.464 -2.908-3.84 -2.752-4.233 -2.752C-4.626 -2.752-5.003 -2.908-5.281 -3.186C-5.559 -3.464-5.715 -3.84-5.715 -4.233C-5.715 -4.626-5.559 -5.003-5.281 -5.281C-5.003 -5.559-4.626 -5.715-4.233 -5.715C-3.84 -5.715-3.464 -5.559-3.186 -5.281C-2.908 -5.003-2.752 -4.626-2.752 -4.233"/><path class="cut1" d="M5.715 -4.233C5.715 -3.84 5.559 -3.464 5.281 -3.186C5.003 -2.908 4.626 -2.752 4.233 -2.752C3.84 -2.752 3.464 -2.908 3.186 -3.186C2.908 -3.464 2.752 -3.84 2.752 -4.233C2.752 -4.626 2.908 -5.003 3.186 -5.281C3.464 -5.559 3.84 -5.715 4.233 -5.715C4.626 -5.715 5.003 -5.559 5.281 -5.281C5.559 -5.003 5.715 -4.626 5.715 -4.233"/>null<path class="cut1" d="M6.35 -7.937C6.771 -7.937 7.175 -7.77 7.473 -7.473C7.77 -7.175 7.938 -6.771 7.938 -6.35L7.938 6.35C7.938 6.771 7.77 7.175 7.473 7.473C7.175 7.77 6.771 7.938 6.35 7.938L-6.35 7.938C-6.771 7.938-7.175 7.77-7.473 7.473C-7.77 7.175-7.937 6.771-7.937 6.35L-7.937 -6.35C-7.937 -6.771-7.77 -7.175-7.473 -7.473C-7.175 -7.77-6.771 -7.937-6.35 -7.937Z"/></g><g transform="translate(61.119 96.044)">null<path class="cut1" d="M-2.752 0C-2.752 0.393-2.908 0.77-3.186 1.048C-3.464 1.326-3.84 1.482-4.233 1.482C-4.626 1.482-5.003 1.326-5.281 1.048C-5.559 0.77-5.715 0.393-5.715 0C-5.715 -0.393-5.559 -0.77-5.281 -1.048C-5.003 -1.326-4.626 -1.482-4.233 -1.482C-3.84 -1.482-3.464 -1.326-3.186 -1.048C-2.908 -0.77-2.752 -0.393-2.752 0"/><path class="cut1" d="M1.482 -4.233C1.482 -3.84 1.326 -3.464 1.048 -3.186C0.77 -2.908 0.393 -2.752 0 -2.752C-0.393 -2.752-0.77 -2.908-1.048 -3.186C-1.326 -3.464-1.482 -3.84-1.482 -4.233C-1.482 -4.626-1.326 -5.003-1.048 -5.281C-0.77 -5.559-0.393 -5.715 0 -5.715C0.393 -5.715 0.77 -5.559 1.048 -5.281C1.326 -5.003 1.482 -4.626 1.482 -4.233"/><path class="cut1" d="M5.715 0C5.715 0.393 5.559 0.77 5.281 1.048C5.003 1.326 4.626 1.482 4.233 1.482C3.84 1.482 3.464 1.326 3.186 1.048C2.908 0.77 2.752 0.393 2.752 0C2.752 -0.393 2.908 -0.77 3.186 -1.048C3.464 -1.326 3.84 -1.482 4.233 -1.482C4.626 -1.482 5.003 -1.326 5.281 -1.048C5.559 -0.77 5.715 -0.393 5.715 0"/>null<path class="cut1" d="M-2.752 4.233C-2.752 4.626-2.908 5.003-3.186 5.281C-3.464 5.559-3.84 5.715-4.233 5.715C-4.626 5.715-5.003 5.559-5.281 5.281C-5.559 5.003-5.715 4.626-5.715 4.233C-5.715 3.84-5.559 3.464-5.281 3.186C-5.003 2.908-4.626 2.752-4.233 2.752C-3.84 2.752-3.464 2.908-3.186 3.186C-2.908 3.464-2.752 3.84-2.752 4.233"/><path class="cut1" d="M-2.752 -4.233C-2.752 -3.84-2.908 -3.464-3.186 -3.186C-3.464 -2.908-3.84 -2.752-4.233 -2.752C-4.626 -2.752-5.003 -2.908-5.281 -3.186C-5.559 -3.464-5.715 -3.84-5.715 -4.233C-5.715 -4.626-5.559 -5.003-5.281 -5.281C-5.003 -5.559-4.626 -5.715-4.233 -5.715C-3.84 -5.715-3.464 -5.559-3.186 -5.281C-2.908 -5.003-2.752 -4.626-2.752 -4.233"/><path class="cut1" d="M5.715 -4.233C5.715 -3.84 5.559 -3.464 5.281 -3.186C5.003 -2.908 4.626 -2.752 4.233 -2.752C3.84 -2.752 3.464 -2.908 3.186 -3.186C2.908 -3.464 2.752 -3.84 2.752 -4.233C2.752 -4.626 2.908 -5.003 3.186 -5.281C3.464 -5.559 3.84 -5.715 4.233 -5.715C4.626 -5.715 5.003 -5.559 5.281 -5.281C5.559 -5.003 5.715 -4.626 5.715 -4.233"/><path class="cut1" d="M1.482 0C1.482 0.393 1.326 0.77 1.048 1.048C0.77 1.326 0.393 1.482 0 1.482C-0.393 1.482-0.77 1.326-1.048 1.048C-1.326 0.77-1.482 0.393-1.482 0C-1.482 -0.393-1.326 -0.77-1.048 -1.048C-0.77 -1.326-0.393 -1.482 0 -1.482C0.393 -1.482 0.77 -1.326 1.048 -1.048C1.326 -0.77 1.482 -0.393 1.482 0"/><path class="cut1" d="M6.35 -7.937C6.771 -7.937 7.175 -7.77 7.473 -7.473C7.77 -7.175 7.938 -6.771 7.938 -6.35L7.938 6.35C7.938 6.771 7.77 7.175 7.473 7.473C7.175 7.77 6.771 7.938 6.35 7.938L-6.35 7.938C-6.771 7.938-7.175 7.77-7.473 7.473C-7.77 7.175-7.937 6.771-7.937 6.35L-7.937 -6.35C-7.937 -6.771-7.77 -7.175-7.473 -7.473C-7.175 -7.77-6.771 -7.937-6.35 -7.937Z"/></g><g transform="translate(78.581 96.044)">null<path class="cut1" d="M-2.752 0C-2.752 0.393-2.908 0.77-3.186 1.048C-3.464 1.326-3.84 1.482-4.233 1.482C-4.626 1.482-5.003 1.326-5.281 1.048C-5.559 0.77-5.715 0.393-5.715 0C-5.715 -0.393-5.559 -0.77-5.281 -1.048C-5.003 -1.326-4.626 -1.482-4.233 -1.482C-3.84 -1.482-3.464 -1.326-3.186 -1.048C-2.908 -0.77-2.752 -0.393-2.752 0"/><path class="cut1" d="M1.482 -4.233C1.482 -3.84 1.326 -3.464 1.048 -3.186C0.77 -2.908 0.393 -2.752 0 -2.752C-0.393 -2.752-0.77 -2.908-1.048 -3.186C-1.326 -3.464-1.482 -3.84-1.482 -4.233C-1.482 -4.626-1.326 -5.003-1.048 -5.281C-0.77 -5.559-0.393 -5.715 0 -5.715C0.393 -5.715 0.77 -5.559 1.048 -5.281C1.326 -5.003 1.482 -4.626 1.482 -4.233"/><path class="cut1" d="M5.715 0C5.715 0.393 5.559 0.77 5.281 1.048C5.003 1.326 4.626 1.482 4.233 1.482C3.84 1.482 3.464 1.326 3.186 1.048C2.908 0.77 2.752 0.393 2.752 0C2.752 -0.393 2.908 -0.77 3.186 -1.048C3.464 -1.326 3.84 -1.482 4.233 -1.482C4.626 -1.482 5.003 -1.326 5.281 -1.048C5.559 -0.77 5.715 -0.393 5.715 0"/><path class="cut1" d="M5.715 4.233C5.715 4.626 5.559 5.003 5.281 5.281C5.003 5.559 4.626 5.715 4.233 5.715C3.84 5.715 3.464 5.559 3.186 5.281C2.908 5.003 2.752 4.626 2.752 4.233C2.752 3.84 2.908 3.464 3.186 3.186C3.464 2.908 3.84 2.752 4.233 2.752C4.626 2.752 5.003 2.908 5.281 3.186C5.559 3.464 5.715 3.84 5.715 4.233"/><path class="cut1" d="M-2.752 4.233C-2.752 4.626-2.908 5.003-3.186 5.281C-3.464 5.559-3.84 5.715-4.233 5.715C-4.626 5.715-5.003 5.559-5.281 5.281C-5.559 5.003-5.715 4.626-5.715 4.233C-5.715 3.84-5.559 3.464-5.281 3.186C-5.003 2.908-4.626 2.752-4.233 2.752C-3.84 2.752-3.464 2.908-3.186 3.186C-2.908 3.464-2.752 3.84-2.752 4.233"/>null<path class="cut1" d="M5.715 -4.233C5.715 -3.84 5.559 -3.464 5.281 -3.186C5.003 -2.908 4.626 -2.752 4.233 -2.752C3.84 -2.752 3.464 -2.908 3.186 -3.186C2.908 -3.464 2.752 -3.84 2.752 -4.233C2.752 -4.626 2.908 -5.003 3.186 -5.281C3.464 -5.559 3.84 -5.715 4.233 -5.715C4.626 -5.715 5.003 -5.559 5.281 -5.281C5.559 -5.003 5.715 -4.626 5.715 -4.233"/>null<path class="cut1" d="M6.35 -7.937C6.771 -7.937 7.175 -7.77 7.473 -7.473C7.77 -7.175 7.938 -6.771 7.938 -6.35L7.938 6.35C7.938 6.771 7.77 7.175 7.473 7.473C7.175 7.77 6.771 7.938 6.35 7.938L-6.35 7.938C-6.771 7.938-7.175 7.77-7.473 7.473C-7.77 7.175-7.937 6.771-7.937 6.35L-7.937 -6.35C-7.937 -6.771-7.77 -7.175-7.473 -7.473C-7.175 -7.77-6.771 -7.937-6.35 -7.937Z"/></g><g transform="translate(96.044 96.044)">null<path class="cut1" d="M-2.752 0C-2.752 0.393-2.908 0.77-3.186 1.048C-3.464 1.326-3.84 1.482-4.233 1.482C-4.626 1.482-5.003 1.326-5.281 1.048C-5.559 0.77-5.715 0.393-5.715 0C-5.715 -0.393-5.559 -0.77-5.281 -1.048C-5.003 -1.326-4.626 -1.482-4.233 -1.482C-3.84 -1.482-3.464 -1.326-3.186 -1.048C-2.908 -0.77-2.752 -0.393-2.752 0"/><path class="cut1" d="M1.482 -4.233C1.482 -3.84 1.326 -3.464 1.048 -3.186C0.77 -2.908 0.393 -2.752 0 -2.752C-0.393 -2.752-0.77 -2.908-1.048 -3.186C-1.326 -3.464-1.482 -3.84-1.482 -4.233C-1.482 -4.626-1.326 -5.003-1.048 -5.281C-0.77 -5.559-0.393 -5.715 0 -5.715C0.393 -5.715 0.77 -5.559 1.048 -5.281C1.326 -5.003 1.482 -4.626 1.482 -4.233"/><path class="cut1" d="M5.715 0C5.715 0.393 5.559 0.77 5.281 1.048C5.003 1.326 4.626 1.482 4.233 1.482C3.84 1.482 3.464 1.326 3.186 1.048C2.908 0.77 2.752 0.393 2.752 0C2.752 -0.393 2.908 -0.77 3.186 -1.048C3.464 -1.326 3.84 -1.482 4.233 -1.482C4.626 -1.482 5.003 -1.326 5.281 -1.048C5.559 -0.77 5.715 -0.393 5.715 0"/><path class="cut1" d="M5.715 4.233C5.715 4.626 5.559 5.003 5.281 5.281C5.003 5.559 4.626 5.715 4.233 5.715C3.84 5.715 3.464 5.559 3.186 5.281C2.908 5.003 2.752 4.626 2.752 4.233C2.752 3.84 2.908 3.464 3.186 3.186C3.464 2.908 3.84 2.752 4.233 2.752C4.626 2.752 5.003 2.908 5.281 3.186C5.559 3.464 5.715 3.84 5.715 4.233"/><path class="cut1" d="M-2.752 4.233C-2.752 4.626-2.908 5.003-3.186 5.281C-3.464 5.559-3.84 5.715-4.233 5.715C-4.626 5.715-5.003 5.559-5.281 5.281C-5.559 5.003-5.715 4.626-5.715 4.233C-5.715 3.84-5.559 3.464-5.281 3.186C-5.003 2.908-4.626 2.752-4.233 2.752C-3.84 2.752-3.464 2.908-3.186 3.186C-2.908 3.464-2.752 3.84-2.752 4.233"/>null<path class="cut1" d="M5.715 -4.233C5.715 -3.84 5.559 -3.464 5.281 -3.186C5.003 -2.908 4.626 -2.752 4.233 -2.752C3.84 -2.752 3.464 -2.908 3.186 -3.186C2.908 -3.464 2.752 -3.84 2.752 -4.233C2.752 -4.626 2.908 -5.003 3.186 -5.281C3.464 -5.559 3.84 -5.715 4.233 -5.715C4.626 -5.715 5.003 -5.559 5.281 -5.281C5.559 -5.003 5.715 -4.626 5.715 -4.233"/><path class="cut1" d="M1.482 0C1.482 0.393 1.326 0.77 1.048 1.048C0.77 1.326 0.393 1.482 0 1.482C-0.393 1.482-0.77 1.326-1.048 1.048C-1.326 0.77-1.482 0.393-1.482 0C-1.482 -0.393-1.326 -0.77-1.048 -1.048C-0.77 -1.326-0.393 -1.482 0 -1.482C0.393 -1.482 0.77 -1.326 1.048 -1.048C1.326 -0.77 1.482 -0.393 1.482 0"/><path class="cut1" d="M6.35 -7.937C6.771 -7.937 7.175 -7.77 7.473 -7.473C7.77 -7.175 7.938 -6.771 7.938 -6.35L7.938 6.35C7.938 6.771 7.77 7.175 7.473 7.473C7.175 7.77 6.771 7.938 6.35 7.938L-6.35 7.938C-6.771 7.938-7.175 7.77-7.473 7.473C-7.77 7.175-7.937 6.771-7.937 6.35L-7.937 -6.35C-7.937 -6.771-7.77 -7.175-7.473 -7.473C-7.175 -7.77-6.771 -7.937-6.35 -7.937Z"/></g></g></svg>